<svg id="Color" xmlns="http://www.w3.org/2000/svg" viewBox="0 0 358.68 95.12" width="358.68" height="95.12"><defs><style>.cls-1{fill:#616365;}.cls-2{fill:#c11f3e;}</style></defs><path class="cls-1" d="M191.28,27.06a9.23,9.23,0,0,1-.91,4.26A8.52,8.52,0,0,1,188,34.26a9.88,9.88,0,0,1-3.38,1.7,13.73,13.73,0,0,1-3.82.55h-7V17.73h6.79a16.76,16.76,0,0,1,3.93.46,9.83,9.83,0,0,1,3.45,1.54,8,8,0,0,1,2.44,2.88,9.77,9.77,0,0,1,.92,4.45m-4.72,0a6,6,0,0,0-.51-2.64,4.64,4.64,0,0,0-1.38-1.67,5.51,5.51,0,0,0-2-.88,9.45,9.45,0,0,0-2.26-.27h-2.26v11h2.15a9.63,9.63,0,0,0,2.35-.28,5.58,5.58,0,0,0,2-.91,4.66,4.66,0,0,0,1.38-1.7,6,6,0,0,0,.51-2.63"/><path class="cls-1" d="M193.86,25.1a7.57,7.57,0,0,1,2.71-1.67,9.37,9.37,0,0,1,3.17-.56,8.59,8.59,0,0,1,2.83.41,4.24,4.24,0,0,1,1.87,1.28,5.64,5.64,0,0,1,1.05,2.17,13,13,0,0,1,.33,3.12v6.66h-4V35.1h-.08a3.24,3.24,0,0,1-1.53,1.27,5.39,5.39,0,0,1-2.21.45,6.77,6.77,0,0,1-1.64-.21,4.77,4.77,0,0,1-1.56-.69,3.71,3.71,0,0,1-1.15-1.27,4,4,0,0,1-.45-2,3.33,3.33,0,0,1,.78-2.31A5.13,5.13,0,0,1,196,29a10.69,10.69,0,0,1,2.74-.64,27.17,27.17,0,0,1,3-.16V28a1.62,1.62,0,0,0-.69-1.45,3,3,0,0,0-1.7-.46,4.14,4.14,0,0,0-1.79.4,5.4,5.4,0,0,0-1.47.95Zm8,5.65h-.56a13.88,13.88,0,0,0-1.44.07,5.88,5.88,0,0,0-1.3.25,2.28,2.28,0,0,0-.94.54,1.26,1.26,0,0,0-.38.94,1.12,1.12,0,0,0,.18.64,1.36,1.36,0,0,0,.43.43,1.92,1.92,0,0,0,.61.22,3.11,3.11,0,0,0,.67.07,2.68,2.68,0,0,0,2-.73,2.74,2.74,0,0,0,.71-2Z"/><path class="cls-1" d="M213.51,26.53v5.06a2.27,2.27,0,0,0,.36,1.4,1.51,1.51,0,0,0,1.28.47,4.18,4.18,0,0,0,.68-.06,2.17,2.17,0,0,0,.6-.16l0,3.19a9.51,9.51,0,0,1-1.14.28,9.17,9.17,0,0,1-1.38.11,6.52,6.52,0,0,1-2.23-.33,3.38,3.38,0,0,1-1.44-1,3.65,3.65,0,0,1-.79-1.48,7.23,7.23,0,0,1-.24-1.93V26.53h-2.12V23.3h2.1V19.82h4.27V23.3h3.1v3.23Z"/><path class="cls-1" d="M218.47,25.1a7.52,7.52,0,0,1,2.72-1.67,9.32,9.32,0,0,1,3.16-.56,8.59,8.59,0,0,1,2.83.41,4.24,4.24,0,0,1,1.87,1.28,5.37,5.37,0,0,1,1,2.17,13,13,0,0,1,.33,3.12v6.66h-4V35.1h-.08a3.24,3.24,0,0,1-1.53,1.27,5.39,5.39,0,0,1-2.21.45,6.77,6.77,0,0,1-1.64-.21,4.63,4.63,0,0,1-1.55-.69,3.74,3.74,0,0,1-1.16-1.27,4,4,0,0,1-.45-2,3.33,3.33,0,0,1,.78-2.31,5.21,5.21,0,0,1,2-1.35,10.79,10.79,0,0,1,2.74-.64,27.17,27.17,0,0,1,2.95-.16V28a1.62,1.62,0,0,0-.69-1.45,3,3,0,0,0-1.7-.46,4.14,4.14,0,0,0-1.79.4,5.73,5.73,0,0,0-1.47.95Zm8,5.65h-.56a14,14,0,0,0-1.44.07,5.88,5.88,0,0,0-1.3.25,2.28,2.28,0,0,0-.94.54,1.26,1.26,0,0,0-.38.94,1.12,1.12,0,0,0,.18.64,1.29,1.29,0,0,0,.44.43,1.76,1.76,0,0,0,.61.22,3,3,0,0,0,.66.07,2.48,2.48,0,0,0,2.73-2.71Z"/><path class="cls-1" d="M135.11,17.73h6.47a9.57,9.57,0,0,1,2.12.24,5.66,5.66,0,0,1,1.9.79A4.41,4.41,0,0,1,147,20.22a4.52,4.52,0,0,1,.52,2.26,3.9,3.9,0,0,1-.9,2.62,4.6,4.6,0,0,1-2.39,1.46v.05a5.37,5.37,0,0,1,1.67.47,4.51,4.51,0,0,1,1.33.94A4.24,4.24,0,0,1,148,29.4a5,5,0,0,1,.3,1.78,4.58,4.58,0,0,1-2.07,4,6.83,6.83,0,0,1-2.24,1,10.55,10.55,0,0,1-2.74.34h-6.18Zm2.62,7.93h3.42a5.94,5.94,0,0,0,1.42-.17,3.54,3.54,0,0,0,1.18-.53,2.6,2.6,0,0,0,.8-.91,2.79,2.79,0,0,0,.29-1.31,2.3,2.3,0,0,0-1.11-2.16,6,6,0,0,0-3-.65h-3Zm0,8.62H141a9.4,9.4,0,0,0,1.66-.15,4.58,4.58,0,0,0,1.51-.52,3,3,0,0,0,1.09-1,2.83,2.83,0,0,0,.41-1.58,2.66,2.66,0,0,0-1.14-2.41,6,6,0,0,0-3.29-.74h-3.53Z"/><path class="cls-1" d="M154.92,19.4a1.47,1.47,0,0,1-.49,1.14,1.65,1.65,0,0,1-1.17.45,1.61,1.61,0,0,1-1.16-.46,1.62,1.62,0,0,1,0-2.28,1.68,1.68,0,0,1,2.33,0,1.51,1.51,0,0,1,.49,1.15m-.4,17.11H152V23.93h2.49Z"/><path class="cls-1" d="M171.6,30.19a6.67,6.67,0,0,1-.52,2.68A6.21,6.21,0,0,1,169.65,35a6.55,6.55,0,0,1-2.16,1.38,7.57,7.57,0,0,1-5.36,0A6.36,6.36,0,0,1,160,35a6.18,6.18,0,0,1-1.42-2.11,6.67,6.67,0,0,1-.52-2.68,6.58,6.58,0,0,1,.52-2.66A6.06,6.06,0,0,1,160,25.45a6.34,6.34,0,0,1,2.14-1.37,7.57,7.57,0,0,1,5.36,0,6.53,6.53,0,0,1,2.16,1.37,6.09,6.09,0,0,1,1.43,2.08,6.58,6.58,0,0,1,.52,2.66m-2.6,0a5.21,5.21,0,0,0-.28-1.72,4.08,4.08,0,0,0-.81-1.44,3.65,3.65,0,0,0-1.32-1,4.09,4.09,0,0,0-1.79-.37,4.14,4.14,0,0,0-1.8.37,3.7,3.7,0,0,0-1.31,1,4.26,4.26,0,0,0-.82,1.44,5.61,5.61,0,0,0,0,3.44,4.51,4.51,0,0,0,.82,1.45,3.87,3.87,0,0,0,1.31,1,4.29,4.29,0,0,0,1.8.37,4.24,4.24,0,0,0,1.79-.37,3.81,3.81,0,0,0,1.32-1,4.3,4.3,0,0,0,.81-1.45,5.21,5.21,0,0,0,.28-1.72"/><g id="xrushB.tif"><path class="cls-1" d="M333.52,77.43h-.37l-.23,0a3.59,3.59,0,0,1-.86-.2,3.76,3.76,0,0,1-2.45-3.26,3.67,3.67,0,0,1,.09-1.14,3.76,3.76,0,0,1,3.45-2.87,3.6,3.6,0,0,1,1.18.13,3.68,3.68,0,0,1,2.25,1.72,3.59,3.59,0,0,1,.51,1.59s0,.09,0,.14v.34a.06.06,0,0,1,0,0,2.11,2.11,0,0,1,0,.25,3.5,3.5,0,0,1-.23.9A3.68,3.68,0,0,1,335,77a3.76,3.76,0,0,1-1.38.39Zm-3.16-3.75a3,3,0,1,0,3-3A3,3,0,0,0,330.36,73.68Z"/><path class="cls-1" d="M334,73.72a.8.8,0,0,1,.4.25,1.51,1.51,0,0,1,.18.26l.32.61.33.68,0,0h-1s0,0,0,0c-.17-.33-.33-.66-.49-1a1.14,1.14,0,0,0-.23-.31.49.49,0,0,0-.32-.14h-.4v1.47h-1V71.63h1.62a2.27,2.27,0,0,1,.78.12,1,1,0,0,1,.46.32.86.86,0,0,1,.16.41,1.36,1.36,0,0,1,0,.6.88.88,0,0,1-.53.57Zm-1.28-.35h.51l.16,0a.39.39,0,0,0,.32-.28.72.72,0,0,0,0-.41.31.31,0,0,0-.23-.24.8.8,0,0,0-.21,0h-.55Z"/></g><polygon class="cls-2" points="178.26 61.66 182.48 61.66 180.37 55 178.26 61.66"/><path class="cls-2" d="M135.11,40.69V77.43H321.37l15-18.37-15-18.37Zm23.64,30.12c-5.81,0-10.32-4.45-10.32-11.52V58.9c0-7,4.58-11.59,10.55-11.59a9.7,9.7,0,0,1,7.85,3.57l-3.76,4a5.11,5.11,0,0,0-4-2.14c-2.67,0-4.65,2.37-4.65,6.23v.13c0,4.06,2,6.3,4.65,6.3a5.27,5.27,0,0,0,4.15-2.24l3.7,3.76a10,10,0,0,1-8.18,3.9m26.52-.39-1.33-4.09H176.8l-1.3,4.09h-6l8-22.85h5.91l8,22.85ZM208.9,53h-5.62V70.42h-5.84V53h-5.62V47.7H208.9Zm16.22,17.46-1.33-4.09h-7.14l-1.3,4.09h-6l8-22.85h5.91l8,22.85Zm24.77,0H235.12V47.7H241V65.16h8.93Zm12.23-8.57v8.57h-5.84v-8.5L249,47.7h6.46l3.79,8.21,3.83-8.21h6.36Zm25.93,1.75c0,4.42-3.4,7.14-8.27,7.14a13.79,13.79,0,0,1-9.25-3.34l3.11-4.25a9.93,9.93,0,0,0,6.17,2.56c1.56,0,2.37-.68,2.37-1.65v0c0-.91-.68-1.46-3.34-2.41-4.29-1.46-7.31-3-7.31-7.14v-.09c0-4.13,3.15-7,8.12-7a12.44,12.44,0,0,1,8.11,2.75l-2.95,4.35a9,9,0,0,0-5.29-2.07c-1.33,0-2.08.64-2.08,1.49v0c0,1,.71,1.53,3.6,2.6,4.32,1.39,7,3.15,7,7Zm20-10.64h-5.62V70.42h-5.84V53H291V47.7h17.08Z"/><polygon class="cls-2" points="218.11 61.66 222.33 61.66 220.22 55 218.11 61.66"/><path class="cls-2" d="M135.11,40.69V77.43H321.37l15-18.37-15-18.37Zm23.64,30.12c-5.81,0-10.32-4.45-10.32-11.52V58.9c0-7,4.58-11.59,10.55-11.59a9.7,9.7,0,0,1,7.85,3.57l-3.76,4a5.11,5.11,0,0,0-4-2.14c-2.67,0-4.65,2.37-4.65,6.23v.13c0,4.06,2,6.3,4.65,6.3a5.27,5.27,0,0,0,4.15-2.24l3.7,3.76a10,10,0,0,1-8.18,3.9m26.52-.39-1.33-4.09H176.8l-1.3,4.09h-6l8-22.85h5.91l8,22.85ZM208.9,53h-5.62V70.42h-5.84V53h-5.62V47.7H208.9Zm16.22,17.46-1.33-4.09h-7.14l-1.3,4.09h-6l8-22.85h5.91l8,22.85Zm24.77,0H235.12V47.7H241V65.16h8.93Zm12.23-8.57v8.57h-5.84v-8.5L249,47.7h6.46l3.79,8.21,3.83-8.21h6.36Zm25.93,1.75c0,4.42-3.4,7.14-8.27,7.14a13.79,13.79,0,0,1-9.25-3.34l3.11-4.25a9.93,9.93,0,0,0,6.17,2.56c1.56,0,2.37-.68,2.37-1.65v0c0-.91-.68-1.46-3.34-2.41-4.29-1.46-7.31-3-7.31-7.14v-.09c0-4.13,3.15-7,8.12-7a12.44,12.44,0,0,1,8.11,2.75l-2.95,4.35a9,9,0,0,0-5.29-2.07c-1.33,0-2.08.64-2.08,1.49v0c0,1,.71,1.53,3.6,2.6,4.32,1.39,7,3.15,7,7Zm20-10.64h-5.62V70.42h-5.84V53H291V47.7h17.08Z"/><path class="cls-1" d="M93.63,75a1.14,1.14,0,1,1,2.27,0Zm3.25.63a2.14,2.14,0,1,0-4.22-.24,2.1,2.1,0,0,0,2.16,2.32,2,2,0,0,0,2-1.5h-.93a1,1,0,0,1-1.07.73,1.18,1.18,0,0,1-1.19-1.31ZM89.75,73.9h.73v2.61c0,.73.2,1.12,1.22,1.12.21,0,.42,0,.63,0v-.75a1.89,1.89,0,0,1-.41,0c-.43,0-.47-.2-.47-.6V73.9h.88v-.72h-.88V71.86h-1v1.32h-.73Zm-.43-.72h-1v2.56c0,.68-.28,1.2-1.09,1.2-.53,0-.84-.28-.84-1.06v-2.7h-1V76c0,1.15.49,1.73,1.64,1.73A1.48,1.48,0,0,0,88.35,77h0v.62h1Zm-7,.72h.73v2.61c0,.73.21,1.12,1.22,1.12.21,0,.42,0,.63,0v-.75a1.89,1.89,0,0,1-.41,0c-.43,0-.47-.2-.47-.6V73.9h.88v-.72H84V71.86h-1v1.32h-.73Zm-1.43-1.48h1V71.5h-1Zm0,5.17h1V73.18h-1ZM77.73,73.9h.73v2.61c0,.73.21,1.12,1.22,1.12.21,0,.42,0,.63,0v-.75a1.89,1.89,0,0,1-.41,0c-.43,0-.47-.2-.47-.6V73.9h.88v-.72h-.88V71.86h-1v1.32h-.73Zm-4.07,2.27c0,1,.84,1.54,2,1.54.91,0,2-.39,2-1.43,0-.87-.71-1.13-1.42-1.29s-1.43-.23-1.43-.71.52-.45.8-.45.81.12.89.59h1c-.12-1-.94-1.36-1.85-1.36s-1.84.3-1.84,1.26.7,1.15,1.42,1.31,1.41.22,1.44.73-.61.58-1,.58-.95-.2-1-.77Zm-4.5,1.42h1V75a1.07,1.07,0,0,1,1.06-1.16c.57,0,.85.29.87,1v2.77h1v-3a1.4,1.4,0,0,0-1.56-1.5,1.6,1.6,0,0,0-1.38.78h0v-.65h-.92Zm-2.08,0h1.06V71.5H67.08ZM63.81,71.5h-1v2.25h0a1.7,1.7,0,0,0-1.47-.69c-1,0-1.91.7-1.91,2.29,0,1.33.67,2.36,2.06,2.36A1.48,1.48,0,0,0,62.88,77h0v.6h.91Zm-3.39,3.93c0-.79.32-1.6,1.24-1.6.75,0,1.22.58,1.22,1.55,0,.77-.37,1.56-1.24,1.56s-1.22-.75-1.22-1.51m-3.64,2.28a2.33,2.33,0,1,0-2.23-2.33,2.14,2.14,0,0,0,2.23,2.33m0-.77c-.87,0-1.26-.79-1.26-1.56s.39-1.55,1.26-1.55S58,74.62,58,75.38s-.38,1.56-1.25,1.56m-4.91.77a2.33,2.33,0,1,0-2.22-2.33,2.13,2.13,0,0,0,2.22,2.33m0-.77c-.87,0-1.25-.79-1.25-1.56s.38-1.55,1.25-1.55,1.26.79,1.26,1.55-.38,1.56-1.26,1.56M48,77.59h1V71.5H48ZM43.3,72.37H45c.58,0,.9.22.9.83a.82.82,0,0,1-.9.85H43.3Zm-1.06,5.22H45c1.58,0,2.24-.74,2.24-1.7a1.45,1.45,0,0,0-1.14-1.57h0A1.34,1.34,0,0,0,47,73c0-1-.71-1.51-1.8-1.51h-3Zm1.06-2.77h1.89a.89.89,0,0,1,1,.93.91.91,0,0,1-1,1H43.3ZM39,71.5H38v2.25h0a1.7,1.7,0,0,0-1.47-.69c-1,0-1.91.7-1.91,2.29,0,1.33.67,2.36,2.06,2.36A1.48,1.48,0,0,0,38,77h0v.6H39Zm-3.4,3.93c0-.79.33-1.6,1.24-1.6.75,0,1.22.58,1.22,1.55,0,.77-.37,1.56-1.24,1.56s-1.22-.75-1.22-1.51m-5.5,2.16h1V75a1.08,1.08,0,0,1,1.07-1.16c.57,0,.84.29.86,1v2.77h1v-3a1.39,1.39,0,0,0-1.56-1.5,1.58,1.58,0,0,0-1.37.78h0v-.65h-.92Zm-.9-3.25c0-.93-.9-1.28-1.76-1.28s-1.94.33-2,1.46h1c0-.47.42-.69,1-.69.39,0,.91.09.91.59s-.62.5-1.32.63-1.7.27-1.7,1.37a1.35,1.35,0,0,0,1.51,1.29,2.29,2.29,0,0,0,1.53-.54.66.66,0,0,0,.75.54,2.6,2.6,0,0,0,.62-.11v-.68a1.24,1.24,0,0,1-.25,0c-.17,0-.23-.09-.23-.33Zm-1,1.76c0,.62-.66.84-1.09.84s-.89-.13-.89-.56.37-.67.79-.74a3.21,3.21,0,0,0,1.19-.26Z"/><path class="cls-1" d="M99.39,68.51H100a.79.79,0,0,1-.55.83v.52a1.37,1.37,0,0,0,1.15-1.35V67.36H99.39Zm-.91-4.41h-1v.61h0a1.37,1.37,0,0,0-1.3-.73,2,2,0,0,0-2,2.21c0,1.26.58,2.32,2,2.32a1.51,1.51,0,0,0,1.32-.77h0v.67a1,1,0,0,1-1.14,1.13c-.49,0-.93-.1-1.05-.65h-1c.09,1,1.09,1.37,2,1.37,1.38,0,2.16-.66,2.16-2Zm-2.16,3.64c-.81,0-1.16-.73-1.16-1.45s.3-1.54,1.16-1.54,1.19.7,1.19,1.46-.33,1.53-1.19,1.53m-6.66.77h1v-2.6a1.08,1.08,0,0,1,1.07-1.16c.57,0,.84.3.86,1v2.77h1v-3A1.39,1.39,0,0,0,92,64a1.57,1.57,0,0,0-1.37.79l0,0V64.1h-.92Zm-.87-4.41h-1v2.56c0,.68-.27,1.2-1.08,1.2-.53,0-.85-.28-.85-1V64.1h-1v2.8c0,1.15.49,1.73,1.65,1.73a1.49,1.49,0,0,0,1.25-.73h0v.61h1Zm-8.48,4.41h4.16v-.92H81.38V62.42H80.31Zm-4.49,0h.59a.79.79,0,0,1-.56.83v.52A1.36,1.36,0,0,0,77,68.51V67.36H75.82Zm-3.21-3.68h.74v2.6c0,.73.2,1.12,1.21,1.12.22,0,.42,0,.63,0v-.75a1.36,1.36,0,0,1-.4,0c-.44,0-.47-.21-.47-.61V64.83h.87V64.1h-.87V62.78h-1V64.1h-.74Zm-2.4,3.68h1v-2.1c0-1,.53-1.51,1.19-1.51a2.84,2.84,0,0,1,.42,0V64a2,2,0,0,0-.37,0,1.43,1.43,0,0,0-1.28,1h0V64.1h-.91Zm-.9-3.25c0-.93-.9-1.28-1.76-1.28s-1.94.34-2,1.47h1c0-.48.43-.7,1-.7s.92.09.92.6-.63.49-1.32.62-1.7.27-1.7,1.37a1.34,1.34,0,0,0,1.51,1.29,2.22,2.22,0,0,0,1.52-.54c.08.4.36.54.76.54a2.52,2.52,0,0,0,.61-.11v-.67h-.24c-.18,0-.23-.09-.23-.33Zm-1,1.77c0,.61-.67.83-1.09.83s-.9-.12-.9-.56.37-.67.79-.73a3.48,3.48,0,0,0,1.2-.27Zm-6.55-1.11A1.14,1.14,0,0,1,63,64.75a1.16,1.16,0,0,1,1.11,1.17Zm3.24.64a2.13,2.13,0,1,0-4.21-.25A2.08,2.08,0,0,0,63,68.63a1.93,1.93,0,0,0,2-1.5h-.92a1,1,0,0,1-1.08.73,1.17,1.17,0,0,1-1.18-1.3Zm-9.89,2H56.2V65.77H59v2.74H60V62.42H59v2.42H56.2V62.42H55.14Zm-4.21,0h1V62.42h-1ZM50,65.26c0-.93-.91-1.28-1.77-1.28s-1.93.34-2,1.47h1c0-.48.43-.7,1-.7s.92.09.92.6-.63.49-1.33.62-1.69.27-1.69,1.37a1.34,1.34,0,0,0,1.51,1.29,2.22,2.22,0,0,0,1.52-.54.66.66,0,0,0,.75.54,2.6,2.6,0,0,0,.62-.11v-.67h-.24c-.18,0-.23-.09-.23-.33ZM49,67c0,.61-.67.83-1.1.83s-.89-.12-.89-.56.37-.67.79-.73A3.48,3.48,0,0,0,49,66.3Zm-7.47,1.48h1v-2.6a1.08,1.08,0,0,1,1.07-1.16c.57,0,.85.3.86,1v2.77h1v-3A1.39,1.39,0,0,0,43.88,64a1.57,1.57,0,0,0-1.37.79l0,0V64.1h-.92Zm-2.88.12a2.33,2.33,0,1,0-2.23-2.33,2.12,2.12,0,0,0,2.23,2.33m0-.77c-.87,0-1.26-.79-1.26-1.56s.39-1.55,1.26-1.55,1.25.79,1.25,1.55-.38,1.56-1.25,1.56m-3.9-4.52h1v-.92h-1Zm0,5.17h1V64.1h-1Zm-3.16-3.68h.74v2.6c0,.73.2,1.12,1.22,1.12.21,0,.41,0,.63,0v-.75a1.43,1.43,0,0,1-.41,0c-.44,0-.47-.21-.47-.61V64.83h.88V64.1h-.88V62.78h-1V64.1h-.74Zm-.45.43c0-.93-.9-1.28-1.76-1.28s-1.94.34-2,1.47h1c.05-.48.43-.7,1-.7.39,0,.91.09.91.6s-.62.49-1.32.62-1.7.27-1.7,1.37a1.35,1.35,0,0,0,1.51,1.29,2.26,2.26,0,0,0,1.53-.54c.07.4.36.54.75.54a2.44,2.44,0,0,0,.61-.11v-.67h-.24c-.18,0-.23-.09-.23-.33Zm-1,1.77c0,.61-.66.83-1.09.83s-.9-.12-.9-.56.38-.67.8-.73a3.47,3.47,0,0,0,1.19-.27Zm-8.63,1.48h1V64h0l2.77,4.48h1.13V62.42h-1v4.49h0L22.7,62.42H21.58Z"/><path class="cls-1" d="M75.64,18.37H37a3.5,3.5,0,0,0-3.49,3.5v31A3.49,3.49,0,0,0,37,56.34H75.6l10.53-19ZM53.13,45.89H50L42.26,33.41h-.07V45.89H39.36v-17H42.5l7.75,12.51h0V28.91h2.83Zm5.89,0h-3v-17h3Zm13.67,0V38.23H65v7.66H62v-17h3v6.75h7.72V28.91h3v17Z"/><path class="cls-2" d="M78.24,56.34l10.52-19-10.49-19H80.9a4.89,4.89,0,0,1,3.87,2.29L94,37.34,84.74,54.05a4.89,4.89,0,0,1-3.88,2.29Z"/><path class="cls-2" d="M118,77.78a.38.38,0,0,1-.37-.37V17.71a.38.38,0,0,1,.75,0v59.7A.38.38,0,0,1,118,77.78Z"/></svg>