<svg id="Color"
    xmlns="http://www.w3.org/2000/svg" viewBox="0 0 358.68 95.12" width="358.68" height="95.12">
    <defs>
        <style>
          .cls-1{fill:#616365;}
          .cls-2{fill:#b43345;}
          .cls-3{fill:none;stroke:#b53346;stroke-miterlimit:10;stroke-width:2.18px;}
          .cls-4{fill:#c11f3e;}
          .cls-5{fill:#626467;}
        </style>
    </defs>
    <path class="cls-1" d="M88.77,69l-1,.84-.2-.14.58-1.26-.6-.11v-1l1.24-.06Z"/>
    <path class="cls-1" d="M64,18.15c.76,1.42,1.51,2.85,2.28,4.26C67.1,24,68,25.59,68.9,27.18l4.21,7.59c.4.71.82,1.41,1.19,2.13a.72.72,0,0,1-.06.53c-1.12,2-2.25,4.07-3.39,6.11L69,46.84l-4.34,7.85c-.22.41-.42.83-.67,1.22a.89.89,0,0,1-.44.27,1.37,1.37,0,0,1-.35,0q-19.07,0-38.12,0a3.41,3.41,0,0,1-3.42-3.13c0-.86-.11-1.72-.11-2.58q0-14.13,0-28.25a3.82,3.82,0,0,1,1.73-3.61,10.48,10.48,0,0,1,.95-.47ZM27.56,28.76V45.69H30.3V33.08a4,4,0,0,1,.3.37q1.3,2.05,2.6,4.13c1.61,2.59,3.2,5.19,4.8,7.77.09.15.27.35.41.35.94,0,1.88,0,2.83,0V28.8H38.49V41.42c-.37-.62-.65-1.08-.94-1.54-2.22-3.58-4.43-7.16-6.66-10.72a.81.81,0,0,0-.52-.38C29.45,28.74,28.52,28.76,27.56,28.76ZM63.82,45.69V28.79H61v6.68H53.1V28.8H50.27V45.68h2.85v-7.6H61v7.61ZM44.34,28.79V45.67h2.82V28.79Z"/>
    <path class="cls-2" d="M70,18.15a5.69,5.69,0,0,1,2.47,1.51,11.9,11.9,0,0,1,1.08,1.64c1.77,3.19,3.52,6.38,5.28,9.57,1.1,2,2.22,3.95,3.3,5.94a.81.81,0,0,1,0,.68c-1.17,2.16-2.38,4.3-3.57,6.46L76,48.58c-1,1.85-2,3.74-3.09,5.53a4.31,4.31,0,0,1-3.76,2.08c-.86,0-1.73,0-2.71,0,.4-.77.76-1.48,1.15-2.18.73-1.34,1.48-2.67,2.23-4l4.67-8.38c.78-1.4,1.56-2.8,2.32-4.22a.73.73,0,0,0-.06-.59C75.85,35.19,75,33.58,74.07,32q-1.09-2-2.2-4-2.33-4.19-4.67-8.37c-.27-.49-.51-1-.76-1.49Z"/>
    <path class="cls-1" d="M9.71,62.24c1.18-.26,1.66.53,2.14,1.39a24.78,24.78,0,0,0,1.88,2.83V62.3h1v6c-1,.22-1.14.15-1.69-.78a32.08,32.08,0,0,0-2.15-3.21v4l-1.17.06Z"/>
    <path class="cls-1" d="M24.36,77.61a4.76,4.76,0,0,1-1.16-1,2.89,2.89,0,0,1-.07-2.86A1.83,1.83,0,0,1,25.62,73l.64.33V71.28h1V77.4c-.79.12-.83.11-1.06-.25l-.77.46Zm.71-.92a1.54,1.54,0,0,0,0-3c-.69,0-1.21.66-1.21,1.56S24.3,76.69,25.07,76.69Z"/>
    <path class="cls-1" d="M49.18,77.61A2.33,2.33,0,0,1,47.74,76a2.92,2.92,0,0,1,.39-2.39c.71-1,1.91-.93,3-.21V71.3h1v6.1c-.8.12-.83.11-1.06-.25l-.77.46Zm1.92-2.45c0-.1,0-.2,0-.3a1.47,1.47,0,0,0-1-1.17,1,1,0,0,0-1.17.58,1.71,1.71,0,0,0,0,1.82,1.45,1.45,0,0,0,.85.57C50.62,76.77,51.1,76.16,51.1,75.16Z"/>
    <path class="cls-1" d="M14.55,77.61a2.32,2.32,0,0,0-.36-.22c-.68-.3-.72-.87-.67-1.48a.91.91,0,0,1,.84-.89c.57-.11,1.14-.2,1.69-.36a.63.63,0,0,0,.39-.44c0-.17-.24-.48-.38-.48-.38,0-.94,0-1.11.24-.38.54-.82.38-1.3.4a1.3,1.3,0,0,1,.74-1.26,2.68,2.68,0,0,1,2.45,0,1.52,1.52,0,0,1,.61,1c.1.68,0,1.38,0,2.06a2.17,2.17,0,0,0,.28.65l.25,0-.28.81Zm1.83-2.29a12.07,12.07,0,0,0-1.45.31.75.75,0,0,0-.37.56c0,.15.23.4.4.46C15.9,77,16.6,76.34,16.38,75.32Z"/>
    <path class="cls-1" d="M82.39,77.61c-.62-.37-1.28-.7-1.43-1.52-.21-1.17-.14-2.39,1-3a2.09,2.09,0,0,1,3.14,1.51c.14.83.1.84-.75.84H82a.94.94,0,0,0,.59,1.16c.37.17.94.29,1.23-.19S84.55,76,85,76A1.6,1.6,0,0,1,84,77.36a2.58,2.58,0,0,0-.42.25ZM84,74.78c-.24-.88-.59-1.18-1.21-1.1a1,1,0,0,0-.87,1.1Z"/>
    <path class="cls-1" d="M39.49,77.61c-.7-.38-1.4-.75-1.55-1.64-.32-1.93.35-3.07,2.16-3.15,1.65-.06,2.5,1.26,2.28,2.84a2.37,2.37,0,0,1-1.71,2Zm1.8-2.44c0-1.15-.8-1.83-1.67-1.33A2,2,0,0,0,38.9,75a1.35,1.35,0,0,0,1.39,1.69C40.93,76.63,41.29,76.09,41.29,75.17Z"/>
    <path class="cls-1" d="M44.45,77.61a6.42,6.42,0,0,1-1.18-.84c-.86-1-.67-3.12.66-3.72a2.28,2.28,0,0,1,3.36,2.06,2.53,2.53,0,0,1-1.66,2.5Zm-.69-2.46.08,0a2.16,2.16,0,0,0,0,.36c.09.67.43,1.09.95,1.16a1.07,1.07,0,0,0,1.3-.8,2.13,2.13,0,0,0,0-1.32,1.76,1.76,0,0,0-.9-.86c-.46-.19-.87.15-1.12.54A3.85,3.85,0,0,0,43.76,75.15Z"/>
    <path class="cls-1" d="M63.24,77.61l-.48-.23a1.45,1.45,0,0,1-.9-1.35c.49,0,1-.24,1.27.42.17.38,1.35.33,1.6,0s-.06-.64-.49-.76-.89-.22-1.34-.35c-.74-.23-1-.59-.93-1.4a1.27,1.27,0,0,1,1.06-1,6.47,6.47,0,0,1,1.76.11,1.26,1.26,0,0,1,.93,1.18c-.55.06-1,.14-1.44-.34a1.3,1.3,0,0,0-1.14,0c-.36.18-.06.49.19.59.41.15.86.2,1.28.33.78.23,1.31.48,1.21,1.42a1.37,1.37,0,0,1-1.06,1.23,2,2,0,0,0-.33.15Z"/>
    <path class="cls-1" d="M74.71,77.61a1.78,1.78,0,0,1-1-2c.06-.86,0-1.73,0-2.64h1v2.7c0,.76.23,1,.85,1a.92.92,0,0,0,1-1c0-.89,0-1.77,0-2.7h1v4.56l-1.09-.18v-.19l-.63.47Z"/>
    <path class="cls-1" d="M34.63,74.12a1.75,1.75,0,0,1-.84,3.33c-1.09,0-2.19,0-3.33,0v-6.2a30.7,30.7,0,0,1,3.46,0C35.33,71.45,35.89,73,34.63,74.12Zm-3.07,2.5c.76-.06,1.45-.1,2.14-.17a.87.87,0,0,0,.07-1.7c-.73-.09-1.46-.11-2.21-.17Zm0-2.77c.64,0,1.23,0,1.81,0a.77.77,0,0,0,.78-.84,1,1,0,0,0-.59-.71,14.71,14.71,0,0,0-2,0Z"/>
    <path class="cls-1" d="M85.57,67.91a2,2,0,0,1-2.73-.13,2.86,2.86,0,0,1,0-3.3,1.83,1.83,0,0,1,2.47-.4l1.3-.19c0,1.67,0,3.24,0,4.82A1.36,1.36,0,0,1,85.37,70a2.5,2.5,0,0,1-2.51-.47,4,4,0,0,1-.43-.74c.59-.06,1-.17,1.41.31.21.23.89.19,1.29.07C85.72,69,85.65,68.47,85.57,67.91Zm0-1.84c.07-1.1-.62-1.49-1.17-1.4a1.19,1.19,0,0,0-1,1c-.09,1,.19,1.67.76,1.84a1,1,0,0,0,.52,0C85.35,67.4,85.61,67,85.61,66.07Z"/>
    <path class="cls-1" d="M48.29,68.33H47.22V65.69H44.44v2.62H43.33v-6H44.4v2.26h2.78V62.31h1.11Z"/>
    <path class="cls-1" d="M59.28,64l.08.56A1.7,1.7,0,0,1,61.48,64v-1.3h1v1.23l.92.06v.71l-.81.06v2.84l.77,0c.17.83.1.91-.71.87s-1.16-.39-1.16-1.2V64.76c-1.55,0-2.06.38-2.07,1.62v1.93h-1V64Z"/>
    <path class="cls-1" d="M19.92,68.48c-.51-.09-1.06.25-1.35-.22-.68.07-1.3.19-1.93.2a1.19,1.19,0,0,1-1.22-1.16,1.23,1.23,0,0,1,1-1.36c.45-.11.93-.12,1.36-.26.25-.08.62-.3.64-.49.06-.43-.31-.49-.68-.5a1.23,1.23,0,0,0-1.13.45c-.17.18-.59.13-.91.19-.08-.82.36-1.37,1.32-1.49A4.71,4.71,0,0,1,18.7,64a1,1,0,0,1,.79,1.15c0,.69,0,1.38,0,2.06,0,.15,0,.35.1.43C20,68,20,68,19.92,68.48Zm-1.5-2.19c-.39.06-.79.1-1.18.18s-.81.25-.67.7a1,1,0,0,0,.75.51C18.08,67.76,18.54,67.14,18.42,66.29Z"/>
    <path class="cls-1" d="M58.07,68.56l-1.74-.29a2.69,2.69,0,0,1-2.17,0c-.69-.29-.61-.9-.57-1.45a1,1,0,0,1,.87-.91c.47-.1.95-.16,1.43-.25.31,0,.66-.09.64-.52s-.33-.48-.68-.48a1.21,1.21,0,0,0-1.12.46c-.15.19-.64.12-1,.18a1.35,1.35,0,0,1,1-1.39,2.61,2.61,0,0,1,2.34.24,1.27,1.27,0,0,1,.43.82c.07.62,0,1.26,0,1.89,0,.32-.16.72.37.87C58,67.78,58,68.17,58.07,68.56ZM56.46,66.3a5.78,5.78,0,0,0-1.2.19c-.26.1-.45.4-.67.61.23.2.44.53.7.58C56.15,67.86,56.67,67.22,56.46,66.3Z"/>
    <path class="cls-1" d="M34.42,65.32a1.35,1.35,0,0,1,.71-1.22A2.81,2.81,0,0,1,37.5,64a1.13,1.13,0,0,1,.78,1.17c0,.59,0,1.18,0,1.77,0,.31-.12.68.37.81.1,0,.09.42.15.79l-1.55-.23,0-.2a2.58,2.58,0,0,1-2.35.21c-.69-.27-.64-.88-.59-1.45a1,1,0,0,1,.9-.93c.47-.1,1-.12,1.42-.26.23-.07.56-.29.59-.49.06-.38-.27-.49-.63-.5a1.12,1.12,0,0,0-1.16.47C35.33,65.35,34.81,65.27,34.42,65.32Zm2.81,1a5.86,5.86,0,0,0-1.23.19c-.26.1-.45.4-.67.61.22.2.43.52.69.58C36.82,67.86,37.32,67.27,37.23,66.3Z"/>
    <path class="cls-1" d="M53.22,66.45H50.06a1.2,1.2,0,0,0,.81,1.21c.5.19.86-.1,1.25-.42a2.59,2.59,0,0,1,1-.33,1.57,1.57,0,0,1-1.47,1.57c-1.8.06-2.72-.74-2.64-2.37a2.16,2.16,0,1,1,4.24.34Zm-1.08-.79c-.12-.73-.41-1-1-1s-.89.3-1,1Z"/>
    <path class="cls-1" d="M26.86,68.48a2.08,2.08,0,0,1-2.23-2.26c0-1.48.75-2.42,2.28-2.42a2.15,2.15,0,0,1,2.27,2.44A2.11,2.11,0,0,1,26.86,68.48ZM27,64.69a1.32,1.32,0,0,0-1.36,1.42,1.53,1.53,0,0,0,1.22,1.59,1.47,1.47,0,0,0,1.3-1.46A1.4,1.4,0,0,0,27,64.69Z"/>
    <path class="cls-1" d="M18.28,72.93h.93l.08.55a1.77,1.77,0,0,1,2.28-.4,1.24,1.24,0,0,1,.6.84c.07,1.15,0,2.31,0,3.51h-1c0-1,0-1.9,0-2.86,0-.66-.51-1.08-1.06-.85a1.13,1.13,0,0,0-.77,1.13c0,.84,0,1.69,0,2.57H18.28Z"/>
    <path class="cls-1" d="M30.83,68.35H29.75V64c.37.07.89-.35,1,.42A1.77,1.77,0,0,1,33,64a1.42,1.42,0,0,1,.61.9c.07,1.11,0,2.23,0,3.38h-1c0-.9,0-1.81,0-2.72,0-.3-.23-.78-.45-.84a1.47,1.47,0,0,0-1.06.24c-.19.11-.27.5-.28.77C30.81,66.61,30.83,67.45,30.83,68.35Z"/>
    <path class="cls-1" d="M77,68.41l-1.15-.19a14.64,14.64,0,0,1-1.46.25,1.2,1.2,0,0,1-1.3-1.14c0-1.11,0-2.23,0-3.38h1v2.58c0,.73.31,1.17.84,1.18s1-.39,1-1.17V64H77Z"/>
    <path class="cls-1" d="M58.37,77.43h-1V72.94c.39.06.89-.35,1,.42a1.77,1.77,0,0,1,1.71-.47,1.32,1.32,0,0,1,1.16,1.32c0,.9,0,1.81,0,2.71v.5h-1c0-.74,0-1.47,0-2.19a2.92,2.92,0,0,0-.14-1,1,1,0,0,0-.63-.5.92.92,0,0,0-1,.59,1.68,1.68,0,0,0-.13.74C58.36,75.81,58.37,76.6,58.37,77.43Z"/>
    <path class="cls-1" d="M77.84,68.33v-4.4c.38.13.93-.4,1,.44a1.8,1.8,0,0,1,1.9-.48,1.26,1.26,0,0,1,1,1.21c0,1.06,0,2.12,0,3.22h-1c0-.78,0-1.54,0-2.3a2.72,2.72,0,0,0-.08-.63c-.09-.36-.16-.71-.68-.71a1,1,0,0,0-1,.72,6.52,6.52,0,0,0-.13,1.33c0,.52,0,1,0,1.6Z"/>
    <path class="cls-1" d="M68.5,68.33v-6h1.08v5.13h3v.89Z"/>
    <path class="cls-1" d="M71.19,73.83l-.67-.06v-.83l.65-.07V71.64h1.14v1.22l.8.09v.81l-.79.07c0,.83,0,1.65,0,2.47,0,.19.42.34.65.52l.12-.12v.76c-.38,0-.74,0-1.11,0-.55,0-.8-.41-.82-1.19S71.19,74.65,71.19,73.83Z"/>
    <path class="cls-1" d="M78,72.93l.66-.05V71.64h1v1.23l.92.06v.83l-.89.07c0,.78,0,1.55,0,2.31,0,.44.21.54.91.58v.74c-.39,0-.76,0-1.13,0s-.79-.42-.8-1.09c0-.84,0-1.68,0-2.53L78,73.77Z"/>
    <path class="cls-1" d="M68.52,76.73v.73a8.1,8.1,0,0,1-1.21,0c-.46-.06-.62-.4-.61-.85,0-.9,0-1.81,0-2.75l-.8-.08V73l.78-.08V71.65h1v1.23l.8.05v.84l-.79,0c0,.81,0,1.61,0,2.41,0,.22.42.4.65.6Z"/>
    <path class="cls-1" d="M20.6,62.65h1l.06,1.24.76.06v.71l-.78.07c0,.84,0,1.7,0,2.55,0,.17.44.3.75.49,0,.19.3.65-.36.71-.89.08-1.41-.22-1.43-.88s0-1.46,0-2.19v-.68l-.8-.07V64l.79-.07Z"/>
    <path class="cls-1" d="M56.33,77.43h-1V71.29h1Z"/>
    <path class="cls-1" d="M37.18,77.43h-.93V71.29h.93Z"/>
    <path class="cls-1" d="M39.18,68.33v-6h1v6Z"/>
    <path class="cls-1" d="M70,73v4.48h-.93V73Z"/>
    <path class="cls-1" d="M23,68.31V64h.93v4.35Z"/>
    <path class="cls-1" d="M63.9,69.65l.69-1.23L64,68.31v-1h1.14C65.39,68.71,65.18,69.54,63.9,69.65Z"/>
    <path class="cls-1" d="M70.05,71.3v.92h-1V71.3Z"/>
    <path class="cls-1" d="M23.93,63.26H23v-.95h.91Z"/>
    <path class="cls-1" d="M179.86,26.85A9.22,9.22,0,0,1,179,31.1a8.53,8.53,0,0,1-2.41,2.95,10,10,0,0,1-3.38,1.69,13.47,13.47,0,0,1-3.82.55h-7V17.51h6.78a16.77,16.77,0,0,1,3.93.47,10,10,0,0,1,3.45,1.53,8,8,0,0,1,2.44,2.88,9.66,9.66,0,0,1,.92,4.46m-4.71,0a6,6,0,0,0-.52-2.64,4.48,4.48,0,0,0-1.38-1.67,5.56,5.56,0,0,0-2-.89,9.53,9.53,0,0,0-2.27-.27h-2.26v11h2.15a9.51,9.51,0,0,0,2.35-.28,5.58,5.58,0,0,0,2-.91,4.66,4.66,0,0,0,1.38-1.7,6,6,0,0,0,.52-2.62"/>
    <path class="cls-1" d="M182.44,24.88a7.57,7.57,0,0,1,2.71-1.67,9.36,9.36,0,0,1,3.17-.55,8.34,8.34,0,0,1,2.83.41A4.22,4.22,0,0,1,193,24.34a5.53,5.53,0,0,1,1,2.18,12.32,12.32,0,0,1,.34,3.11v6.66h-4V34.88h-.08a3.29,3.29,0,0,1-1.53,1.27,5.39,5.39,0,0,1-2.21.45,6.77,6.77,0,0,1-1.64-.21,4.77,4.77,0,0,1-1.56-.69,3.72,3.72,0,0,1-1.15-1.27,3.92,3.92,0,0,1-.45-2,3.33,3.33,0,0,1,.78-2.31,5.13,5.13,0,0,1,2-1.35,10.69,10.69,0,0,1,2.74-.64c1-.1,2-.16,2.95-.16V27.8a1.6,1.6,0,0,0-.69-1.44,3,3,0,0,0-1.7-.47,4.14,4.14,0,0,0-1.79.4,5.4,5.4,0,0,0-1.47.95Zm8,5.65h-.56a13.88,13.88,0,0,0-1.44.07,5.88,5.88,0,0,0-1.3.25,2.4,2.4,0,0,0-.94.54,1.27,1.27,0,0,0-.38,1A1.09,1.09,0,0,0,186,33a1.36,1.36,0,0,0,.43.43,1.92,1.92,0,0,0,.61.22,3.11,3.11,0,0,0,.67.07,2.65,2.65,0,0,0,2-.73,2.74,2.74,0,0,0,.71-2Z"/>
    <path class="cls-1" d="M202.09,26.32v5.05a2.26,2.26,0,0,0,.35,1.4,1.55,1.55,0,0,0,1.29.47,4.18,4.18,0,0,0,.68-.06A2.2,2.2,0,0,0,205,33l.06,3.18a8.45,8.45,0,0,1-1.15.28,7.83,7.83,0,0,1-1.37.11,6.52,6.52,0,0,1-2.23-.33,3.56,3.56,0,0,1-1.45-1,3.87,3.87,0,0,1-.78-1.49,7.23,7.23,0,0,1-.24-1.93V26.32h-2.12V23.08h2.1V19.61h4.27v3.47h3.1v3.24Z"/>
    <path class="cls-1" d="M207,24.88a7.7,7.7,0,0,1,2.72-1.67,9.36,9.36,0,0,1,3.17-.55,8.28,8.28,0,0,1,2.82.41,4.16,4.16,0,0,1,1.87,1.27,5.41,5.41,0,0,1,1,2.18,12.84,12.84,0,0,1,.33,3.11v6.66h-4V34.88H215a3.29,3.29,0,0,1-1.53,1.27,5.42,5.42,0,0,1-2.21.45,6.91,6.91,0,0,1-1.65-.21A4.81,4.81,0,0,1,208,35.7a3.62,3.62,0,0,1-1.15-1.27,3.92,3.92,0,0,1-.45-2,3.33,3.33,0,0,1,.78-2.31,5.13,5.13,0,0,1,2-1.35,10.69,10.69,0,0,1,2.74-.64c1-.1,2-.16,2.94-.16V27.8a1.6,1.6,0,0,0-.69-1.44,3,3,0,0,0-1.69-.47,4.14,4.14,0,0,0-1.79.4,5.4,5.4,0,0,0-1.47.95Zm8,5.65h-.56a14.21,14.21,0,0,0-1.45.07,6,6,0,0,0-1.3.25,2.47,2.47,0,0,0-.94.54,1.26,1.26,0,0,0-.37,1,1.16,1.16,0,0,0,.17.63,1.39,1.39,0,0,0,.44.43,1.92,1.92,0,0,0,.61.22,3.09,3.09,0,0,0,.66.07,2.67,2.67,0,0,0,2-.73,2.74,2.74,0,0,0,.71-2Z"/>
    <path class="cls-1" d="M123.7,17.51h6.47a9.64,9.64,0,0,1,2.12.24,5.48,5.48,0,0,1,1.9.8A4.37,4.37,0,0,1,135.54,20a4.58,4.58,0,0,1,.51,2.26,3.9,3.9,0,0,1-.9,2.62,4.53,4.53,0,0,1-2.38,1.46v.06a5.44,5.44,0,0,1,1.67.46,4.34,4.34,0,0,1,1.32.94,4.08,4.08,0,0,1,.86,1.38,5.26,5.26,0,0,1-.25,4.14A4.68,4.68,0,0,1,134.86,35a6.84,6.84,0,0,1-2.24,1,11,11,0,0,1-2.74.33H123.7Zm2.62,7.93h3.42a5.94,5.94,0,0,0,1.42-.17,3.35,3.35,0,0,0,1.18-.53,2.66,2.66,0,0,0,.8-.9,2.8,2.8,0,0,0,.29-1.32,2.32,2.32,0,0,0-1.11-2.16,6,6,0,0,0-3-.65h-3Zm0,8.62h3.29a9.4,9.4,0,0,0,1.66-.15,4.81,4.81,0,0,0,1.51-.51,3.08,3.08,0,0,0,1.09-1,2.82,2.82,0,0,0,.41-1.57,2.68,2.68,0,0,0-1.14-2.42,6.1,6.1,0,0,0-3.29-.74h-3.53Z"/>
    <path class="cls-1" d="M143.51,19.18a1.5,1.5,0,0,1-.49,1.14,1.66,1.66,0,0,1-1.17.45,1.59,1.59,0,0,1-1.16-.46,1.53,1.53,0,0,1-.47-1.13,1.56,1.56,0,0,1,.47-1.15,1.59,1.59,0,0,1,1.16-.46A1.63,1.63,0,0,1,143,18a1.54,1.54,0,0,1,.49,1.15m-.4,17.11h-2.49V23.72h2.49Z"/>
    <path class="cls-1" d="M160.19,30a6.83,6.83,0,0,1-.52,2.67,6.35,6.35,0,0,1-1.43,2.11,6.55,6.55,0,0,1-2.16,1.38,7.25,7.25,0,0,1-2.68.49,7.17,7.17,0,0,1-2.68-.49,6.4,6.4,0,0,1-2.15-1.38,6.48,6.48,0,0,1-1.42-2.11,7.11,7.11,0,0,1,0-5.34,6.46,6.46,0,0,1,1.42-2.08,6.54,6.54,0,0,1,2.15-1.37,7.38,7.38,0,0,1,2.68-.49,7.46,7.46,0,0,1,2.68.49,6.69,6.69,0,0,1,2.16,1.37,6.33,6.33,0,0,1,1.43,2.08,6.8,6.8,0,0,1,.52,2.67m-2.6,0a5.49,5.49,0,0,0-.28-1.72,4.41,4.41,0,0,0-.81-1.44,4.34,4.34,0,0,0-4.91-1,4,4,0,0,0-1.32,1,4.41,4.41,0,0,0-.81,1.44,5.42,5.42,0,0,0,0,3.44,4.68,4.68,0,0,0,.81,1.45,3.91,3.91,0,0,0,1.32,1,4.54,4.54,0,0,0,3.59,0,4,4,0,0,0,1.32-1,4.68,4.68,0,0,0,.81-1.45,5.49,5.49,0,0,0,.28-1.72"/>
    <line class="cls-3" x1="106.23" y1="17.51" x2="106.23" y2="77.21"/>
    <polygon class="cls-4" points="166.77 61.46 170.99 61.46 168.88 54.82 166.77 61.46"/>
    <path class="cls-4" d="M123.7,40.53V77.21H309.64l15-18.34-15-18.34ZM147.3,70.6c-5.8,0-10.3-4.44-10.3-11.51v-.38c0-7,4.57-11.57,10.53-11.57a9.69,9.69,0,0,1,7.84,3.56l-3.76,4a5.08,5.08,0,0,0-4-2.14c-2.66,0-4.64,2.37-4.64,6.22v.13c0,4.05,2,6.29,4.64,6.29A5.24,5.24,0,0,0,151.77,63l3.7,3.76a10,10,0,0,1-8.17,3.89m26.47-.39-1.33-4.08h-7.12L164,70.21h-6l8-22.81h5.89l8,22.81Zm23.59-17.43h-5.61V70.21h-5.83V52.78h-5.6V47.53h17Zm16.2,17.43-1.33-4.08H205.1l-1.29,4.08h-6l8-22.81h5.9l8,22.81Zm24.72,0H223.54V47.53h5.83V65h8.91Zm12.22-8.55v8.55h-5.83V61.72l-7.3-14.19h6.45l3.79,8.2,3.83-8.2h6.35Zm25.88,1.74c0,4.41-3.4,7.13-8.26,7.13a13.8,13.8,0,0,1-9.23-3.33L262,63a9.9,9.9,0,0,0,6.16,2.56c1.55,0,2.36-.68,2.36-1.65v0c0-.91-.68-1.46-3.34-2.4-4.27-1.46-7.29-3-7.29-7.13v-.1c0-4.11,3.15-7,8.1-7a12.4,12.4,0,0,1,8.1,2.76l-2.94,4.34a9,9,0,0,0-5.29-2.07c-1.32,0-2.07.64-2.07,1.49v0c0,1,.71,1.52,3.6,2.59,4.31,1.39,7,3.14,7,7Zm20-10.62h-5.6V70.21h-5.83V52.78H279.3V47.53h17Z"/>
    <polygon class="cls-4" points="206.56 61.46 210.78 61.46 208.67 54.82 206.56 61.46"/>
    <path class="cls-4" d="M123.7,40.53V77.21H309.64l15-18.34-15-18.34ZM147.3,70.6c-5.8,0-10.3-4.44-10.3-11.51v-.38c0-7,4.57-11.57,10.53-11.57a9.69,9.69,0,0,1,7.84,3.56l-3.76,4a5.08,5.08,0,0,0-4-2.14c-2.66,0-4.64,2.37-4.64,6.22v.13c0,4.05,2,6.29,4.64,6.29A5.24,5.24,0,0,0,151.77,63l3.7,3.76a10,10,0,0,1-8.17,3.89m26.47-.39-1.33-4.08h-7.12L164,70.21h-6l8-22.81h5.89l8,22.81Zm23.59-17.43h-5.61V70.21h-5.83V52.78h-5.6V47.53h17Zm16.2,17.43-1.33-4.08H205.1l-1.29,4.08h-6l8-22.81h5.9l8,22.81Zm24.72,0H223.54V47.53h5.83V65h8.91Zm12.22-8.55v8.55h-5.83V61.72l-7.3-14.19h6.45l3.79,8.2,3.83-8.2h6.35Zm25.88,1.74c0,4.41-3.4,7.13-8.26,7.13a13.8,13.8,0,0,1-9.23-3.33L262,63a9.9,9.9,0,0,0,6.16,2.56c1.55,0,2.36-.68,2.36-1.65v0c0-.91-.68-1.46-3.34-2.4-4.27-1.46-7.29-3-7.29-7.13v-.1c0-4.11,3.15-7,8.1-7a12.4,12.4,0,0,1,8.1,2.76l-2.94,4.34a9,9,0,0,0-5.29-2.07c-1.32,0-2.07.64-2.07,1.49v0c0,1,.71,1.52,3.6,2.59,4.31,1.39,7,3.14,7,7Zm20-10.62h-5.6V70.21h-5.83V52.78H279.3V47.53h17Z"/>
    <path class="cls-1" d="M179.86,26.85A9.22,9.22,0,0,1,179,31.1a8.53,8.53,0,0,1-2.41,2.95,10,10,0,0,1-3.38,1.69,13.47,13.47,0,0,1-3.82.55h-7V17.51h6.78a16.77,16.77,0,0,1,3.93.47,10,10,0,0,1,3.45,1.53,8,8,0,0,1,2.44,2.88,9.66,9.66,0,0,1,.92,4.46m-4.71,0a6,6,0,0,0-.52-2.64,4.48,4.48,0,0,0-1.38-1.67,5.56,5.56,0,0,0-2-.89,9.53,9.53,0,0,0-2.27-.27h-2.26v11h2.15a9.51,9.51,0,0,0,2.35-.28,5.58,5.58,0,0,0,2-.91,4.66,4.66,0,0,0,1.38-1.7,6,6,0,0,0,.52-2.62"/>
    <path class="cls-1" d="M182.44,24.88a7.57,7.57,0,0,1,2.71-1.67,9.36,9.36,0,0,1,3.17-.55,8.34,8.34,0,0,1,2.83.41A4.22,4.22,0,0,1,193,24.34a5.53,5.53,0,0,1,1,2.18,12.32,12.32,0,0,1,.34,3.11v6.66h-4V34.88h-.08a3.29,3.29,0,0,1-1.53,1.27,5.39,5.39,0,0,1-2.21.45,6.77,6.77,0,0,1-1.64-.21,4.77,4.77,0,0,1-1.56-.69,3.72,3.72,0,0,1-1.15-1.27,3.92,3.92,0,0,1-.45-2,3.33,3.33,0,0,1,.78-2.31,5.13,5.13,0,0,1,2-1.35,10.69,10.69,0,0,1,2.74-.64c1-.1,2-.16,2.95-.16V27.8a1.6,1.6,0,0,0-.69-1.44,3,3,0,0,0-1.7-.47,4.14,4.14,0,0,0-1.79.4,5.4,5.4,0,0,0-1.47.95Zm8,5.65h-.56a13.88,13.88,0,0,0-1.44.07,5.88,5.88,0,0,0-1.3.25,2.4,2.4,0,0,0-.94.54,1.27,1.27,0,0,0-.38,1A1.09,1.09,0,0,0,186,33a1.36,1.36,0,0,0,.43.43,1.92,1.92,0,0,0,.61.22,3.11,3.11,0,0,0,.67.07,2.65,2.65,0,0,0,2-.73,2.74,2.74,0,0,0,.71-2Z"/>
    <path class="cls-1" d="M202.09,26.32v5.05a2.26,2.26,0,0,0,.35,1.4,1.55,1.55,0,0,0,1.29.47,4.18,4.18,0,0,0,.68-.06A2.2,2.2,0,0,0,205,33l.06,3.18a8.45,8.45,0,0,1-1.15.28,7.83,7.83,0,0,1-1.37.11,6.52,6.52,0,0,1-2.23-.33,3.56,3.56,0,0,1-1.45-1,3.87,3.87,0,0,1-.78-1.49,7.23,7.23,0,0,1-.24-1.93V26.32h-2.12V23.08h2.1V19.61h4.27v3.47h3.1v3.24Z"/>
    <path class="cls-1" d="M207,24.88a7.7,7.7,0,0,1,2.72-1.67,9.36,9.36,0,0,1,3.17-.55,8.28,8.28,0,0,1,2.82.41,4.16,4.16,0,0,1,1.87,1.27,5.41,5.41,0,0,1,1,2.18,12.84,12.84,0,0,1,.33,3.11v6.66h-4V34.88H215a3.29,3.29,0,0,1-1.53,1.27,5.42,5.42,0,0,1-2.21.45,6.91,6.91,0,0,1-1.65-.21A4.81,4.81,0,0,1,208,35.7a3.62,3.62,0,0,1-1.15-1.27,3.92,3.92,0,0,1-.45-2,3.33,3.33,0,0,1,.78-2.31,5.13,5.13,0,0,1,2-1.35,10.69,10.69,0,0,1,2.74-.64c1-.1,2-.16,2.94-.16V27.8a1.6,1.6,0,0,0-.69-1.44,3,3,0,0,0-1.69-.47,4.14,4.14,0,0,0-1.79.4,5.4,5.4,0,0,0-1.47.95Zm8,5.65h-.56a14.21,14.21,0,0,0-1.45.07,6,6,0,0,0-1.3.25,2.47,2.47,0,0,0-.94.54,1.26,1.26,0,0,0-.37,1,1.16,1.16,0,0,0,.17.63,1.39,1.39,0,0,0,.44.43,1.92,1.92,0,0,0,.61.22,3.09,3.09,0,0,0,.66.07,2.67,2.67,0,0,0,2-.73,2.74,2.74,0,0,0,.71-2Z"/>
    <path class="cls-1" d="M123.7,17.51h6.47a9.64,9.64,0,0,1,2.12.24,5.48,5.48,0,0,1,1.9.8A4.37,4.37,0,0,1,135.54,20a4.58,4.58,0,0,1,.51,2.26,3.9,3.9,0,0,1-.9,2.62,4.53,4.53,0,0,1-2.38,1.46v.06a5.44,5.44,0,0,1,1.67.46,4.34,4.34,0,0,1,1.32.94,4.08,4.08,0,0,1,.86,1.38,5.26,5.26,0,0,1-.25,4.14A4.68,4.68,0,0,1,134.86,35a6.84,6.84,0,0,1-2.24,1,11,11,0,0,1-2.74.33H123.7Zm2.62,7.93h3.42a5.94,5.94,0,0,0,1.42-.17,3.35,3.35,0,0,0,1.18-.53,2.66,2.66,0,0,0,.8-.9,2.8,2.8,0,0,0,.29-1.32,2.32,2.32,0,0,0-1.11-2.16,6,6,0,0,0-3-.65h-3Zm0,8.62h3.29a9.4,9.4,0,0,0,1.66-.15,4.81,4.81,0,0,0,1.51-.51,3.08,3.08,0,0,0,1.09-1,2.82,2.82,0,0,0,.41-1.57,2.68,2.68,0,0,0-1.14-2.42,6.1,6.1,0,0,0-3.29-.74h-3.53Z"/>
    <path class="cls-1" d="M143.51,19.18a1.5,1.5,0,0,1-.49,1.14,1.66,1.66,0,0,1-1.17.45,1.59,1.59,0,0,1-1.16-.46,1.53,1.53,0,0,1-.47-1.13,1.56,1.56,0,0,1,.47-1.15,1.59,1.59,0,0,1,1.16-.46A1.63,1.63,0,0,1,143,18a1.54,1.54,0,0,1,.49,1.15m-.4,17.11h-2.49V23.72h2.49Z"/>
    <path class="cls-1" d="M160.19,30a6.83,6.83,0,0,1-.52,2.67,6.35,6.35,0,0,1-1.43,2.11,6.55,6.55,0,0,1-2.16,1.38,7.25,7.25,0,0,1-2.68.49,7.17,7.17,0,0,1-2.68-.49,6.4,6.4,0,0,1-2.15-1.38,6.48,6.48,0,0,1-1.42-2.11,7.11,7.11,0,0,1,0-5.34,6.46,6.46,0,0,1,1.42-2.08,6.54,6.54,0,0,1,2.15-1.37,7.38,7.38,0,0,1,2.68-.49,7.46,7.46,0,0,1,2.68.49,6.69,6.69,0,0,1,2.16,1.37,6.33,6.33,0,0,1,1.43,2.08,6.8,6.8,0,0,1,.52,2.67m-2.6,0a5.49,5.49,0,0,0-.28-1.72,4.41,4.41,0,0,0-.81-1.44,4.34,4.34,0,0,0-4.91-1,4,4,0,0,0-1.32,1,4.41,4.41,0,0,0-.81,1.44,5.42,5.42,0,0,0,0,3.44,4.68,4.68,0,0,0,.81,1.45,3.91,3.91,0,0,0,1.32,1,4.54,4.54,0,0,0,3.59,0,4,4,0,0,0,1.32-1,4.68,4.68,0,0,0,.81-1.45,5.49,5.49,0,0,0,.28-1.72"/>
    <polygon class="cls-2" points="166.77 61.46 170.99 61.46 168.88 54.82 166.77 61.46"/>
    <path class="cls-4" d="M123.7,40.53V77.21H309.64l15-18.34-15-18.34ZM147.3,70.6c-5.8,0-10.3-4.44-10.3-11.51v-.38c0-7,4.57-11.57,10.53-11.57a9.69,9.69,0,0,1,7.84,3.56l-3.76,4a5.08,5.08,0,0,0-4-2.14c-2.66,0-4.64,2.37-4.64,6.22v.13c0,4.05,2,6.29,4.64,6.29A5.24,5.24,0,0,0,151.77,63l3.7,3.76a10,10,0,0,1-8.17,3.89m26.47-.39-1.33-4.08h-7.12L164,70.21h-6l8-22.81h5.89l8,22.81Zm23.59-17.43h-5.61V70.21h-5.83V52.78h-5.6V47.53h17Zm16.2,17.43-1.33-4.08H205.1l-1.29,4.08h-6l8-22.81h5.9l8,22.81Zm24.72,0H223.54V47.53h5.83V65h8.91Zm12.22-8.55v8.55h-5.83V61.72l-7.3-14.19h6.45l3.79,8.2,3.83-8.2h6.35Zm25.88,1.74c0,4.41-3.4,7.13-8.26,7.13a13.8,13.8,0,0,1-9.23-3.33L262,63a9.9,9.9,0,0,0,6.16,2.56c1.55,0,2.36-.68,2.36-1.65v0c0-.91-.68-1.46-3.34-2.4-4.27-1.46-7.29-3-7.29-7.13v-.1c0-4.11,3.15-7,8.1-7a12.4,12.4,0,0,1,8.1,2.76l-2.94,4.34a9,9,0,0,0-5.29-2.07c-1.32,0-2.07.64-2.07,1.49v0c0,1,.71,1.52,3.6,2.59,4.31,1.39,7,3.14,7,7Zm20-10.62h-5.6V70.21h-5.83V52.78H279.3V47.53h17Z"/>
    <polygon class="cls-2" points="206.56 61.46 210.78 61.46 208.67 54.82 206.56 61.46"/>
    <path class="cls-4" d="M123.7,40.53V77.21H309.64l15-18.34-15-18.34ZM147.3,70.6c-5.8,0-10.3-4.44-10.3-11.51v-.38c0-7,4.57-11.57,10.53-11.57a9.69,9.69,0,0,1,7.84,3.56l-3.76,4a5.08,5.08,0,0,0-4-2.14c-2.66,0-4.64,2.37-4.64,6.22v.13c0,4.05,2,6.29,4.64,6.29A5.24,5.24,0,0,0,151.77,63l3.7,3.76a10,10,0,0,1-8.17,3.89m26.47-.39-1.33-4.08h-7.12L164,70.21h-6l8-22.81h5.89l8,22.81Zm23.59-17.43h-5.61V70.21h-5.83V52.78h-5.6V47.53h17Zm16.2,17.43-1.33-4.08H205.1l-1.29,4.08h-6l8-22.81h5.9l8,22.81Zm24.72,0H223.54V47.53h5.83V65h8.91Zm12.22-8.55v8.55h-5.83V61.72l-7.3-14.19h6.45l3.79,8.2,3.83-8.2h6.35Zm25.88,1.74c0,4.41-3.4,7.13-8.26,7.13a13.8,13.8,0,0,1-9.23-3.33L262,63a9.9,9.9,0,0,0,6.16,2.56c1.55,0,2.36-.68,2.36-1.65v0c0-.91-.68-1.46-3.34-2.4-4.27-1.46-7.29-3-7.29-7.13v-.1c0-4.11,3.15-7,8.1-7a12.4,12.4,0,0,1,8.1,2.76l-2.94,4.34a9,9,0,0,0-5.29-2.07c-1.32,0-2.07.64-2.07,1.49v0c0,1,.71,1.52,3.6,2.59,4.31,1.39,7,3.14,7,7Zm20-10.62h-5.6V70.21h-5.83V52.78H279.3V47.53h17Z"/>
    <path class="cls-2" d="M123.75,40.53V77.19H309.6l15-18.33-15-18.33Zm23.59,30.05c-5.8,0-10.3-4.43-10.3-11.49V58.7c0-7,4.57-11.56,10.53-11.56a9.65,9.65,0,0,1,7.83,3.56l-3.75,4a5.12,5.12,0,0,0-4-2.14c-2.65,0-4.63,2.37-4.63,6.22v.13c0,4,2,6.29,4.63,6.29a5.25,5.25,0,0,0,4.15-2.24l3.69,3.76a10,10,0,0,1-8.16,3.88m26.46-.39-1.33-4.08h-7.12l-1.3,4.08h-6l8-22.8h5.89l8,22.8Zm23.58-17.42h-5.61V70.19h-5.83V52.77h-5.6V47.52h17Zm16.19,17.42-1.33-4.08h-7.13l-1.29,4.08h-6l8-22.8h5.9l8,22.8Zm24.71,0H223.54V47.52h5.83V65h8.91Zm12.21-8.55v8.55h-5.83V61.71l-7.29-14.19h6.44l3.79,8.2,3.83-8.2h6.34Zm25.87,1.75c0,4.41-3.4,7.13-8.26,7.13a13.83,13.83,0,0,1-9.23-3.34L262,62.94a9.9,9.9,0,0,0,6.16,2.56c1.55,0,2.36-.68,2.36-1.65v0c0-.9-.68-1.45-3.34-2.39-4.27-1.46-7.28-3-7.28-7.13V54.2c0-4.12,3.14-7,8.09-7a12.39,12.39,0,0,1,8.1,2.75l-2.95,4.34a9,9,0,0,0-5.28-2.07c-1.32,0-2.07.65-2.07,1.49v0c0,1,.71,1.52,3.6,2.59,4.3,1.4,7,3.14,7,7Zm19.95-10.62h-5.6V70.19h-5.83V52.77h-5.6V47.52h17Z"/>
    <g id="xrushB.tif">
        <path class="cls-5" d="M321.73,77.37h-.37l-.23,0a3.59,3.59,0,0,1-.86-.2,3.79,3.79,0,0,1-1.5-1,3.67,3.67,0,0,1-.94-2.24,3.58,3.58,0,0,1,.09-1.13,3.71,3.71,0,0,1,1.34-2.08,3.61,3.61,0,0,1,2.1-.78,3.37,3.37,0,0,1,1.18.12,3.74,3.74,0,0,1,2.75,3.31s0,.09,0,.13v.34s0,0,0,0a2,2,0,0,1,0,.25A3.58,3.58,0,0,1,325,75a3.69,3.69,0,0,1-1.81,2,3.47,3.47,0,0,1-1.37.38Zm-3.15-3.74a3,3,0,1,0,3-3A3,3,0,0,0,318.58,73.63Z"/>
        <path class="cls-5" d="M322.21,73.68a.74.74,0,0,1,.4.25,2.27,2.27,0,0,1,.18.25c.11.2.21.41.31.62s.23.44.34.67v0h-1a.05.05,0,0,1-.05,0c-.16-.34-.32-.67-.49-1a.93.93,0,0,0-.22-.31.55.55,0,0,0-.32-.14c-.13,0-.26,0-.39,0h0V75.5h-1V71.59h1.62a2.31,2.31,0,0,1,.78.12.86.86,0,0,1,.45.32,1,1,0,0,1,.17.41,1.46,1.46,0,0,1,0,.59.93.93,0,0,1-.53.58Zm-1.28-.35h.5l.17,0a.38.38,0,0,0,.32-.27.72.72,0,0,0,0-.41.36.36,0,0,0-.23-.25.78.78,0,0,0-.21,0h-.55Z"/>
    </g>
</svg>