<?xml version="1.0" encoding="utf-8"?>
<!-- Generator: Adobe Illustrator 24.0.0, SVG Export Plug-In . SVG Version: 6.00 Build 0)  -->
<svg version="1.1" xmlns="http://www.w3.org/2000/svg" xmlns:xlink="http://www.w3.org/1999/xlink" x="0px" y="0px"
	 width="592px" height="198px" viewBox="0 0 592 198" style="enable-background:new 0 0 592 198;" xml:space="preserve">
<style type="text/css">
	.st0{fill:#C12F42;}
	.st1{fill:#404041;}
</style>
<g>
	<g>
		<polygon class="st0" points="138.1,137.1 149.7,137.1 143.9,119 		"/>
		<path class="st0" d="M20.4,79.9v100.2h508.3l40.9-50.1l-40.9-50.1H20.4z M84.9,162.1c-15.9,0-28.2-12.1-28.2-31.4v-1.1
			c0-19.1,12.5-31.6,28.8-31.6c9.7,0,16.4,3.8,21.4,9.7l-10.3,10.9c-2.7-3.2-6-5.8-10.9-5.8c-7.3,0-12.7,6.5-12.7,17v0.4
			c0,11.1,5.5,17.2,12.7,17.2c5.3,0,8.5-2.8,11.3-6.1l10.1,10.3C102.2,157.7,95.3,162.1,84.9,162.1z M157.3,161l-3.6-11.2h-19.5
			l-3.5,11.2h-16.4L136,98.7h16.1L174,161H157.3z M221.7,113.4h-15.3V161h-15.9v-47.6h-15.3V99h46.6V113.4z M266,161l-3.6-11.2
			h-19.5l-3.5,11.2H223l21.8-62.4h16.1l21.9,62.4H266z M333.6,161h-40.3V99h15.9v47.6h24.4V161z M367,137.7V161H351v-23.2L331.1,99
			h17.6l10.4,22.4L369.6,99h17.4L367,137.7z M437.8,142.4c0,12-9.3,19.5-22.6,19.5c-9.2,0-18-2.8-25.2-9.1l8.5-11.6
			c5,4.2,10.8,7,16.8,7c4.3,0,6.5-1.9,6.5-4.5v-0.1c0-2.5-1.9-4-9.1-6.6c-11.7-4-19.9-8.2-19.9-19.5v-0.3c0-11.2,8.6-19.1,22.1-19.1
			c8.3,0,15.7,2.3,22.1,7.5l-8.1,11.9c-4.3-3.3-9.4-5.7-14.4-5.7c-3.6,0-5.7,1.8-5.7,4.1v0.1c0,2.7,1.9,4.2,9.8,7.1
			c11.8,3.8,19.1,8.6,19.1,19.1V142.4z M492.3,113.4H477V161H461v-47.6h-15.3V99h46.6V113.4z"/>
		<polygon class="st0" points="246.9,137.1 258.4,137.1 252.7,119 		"/>
	</g>
	<g>
		<path class="st1" d="M173.9,42.5c0,4.5-0.8,8.4-2.5,11.6c-1.7,3.3-3.9,5.9-6.6,8c-2.7,2.1-5.8,3.6-9.2,4.6
			c-3.4,1-6.9,1.5-10.4,1.5H126V17h18.6c3.6,0,7.2,0.4,10.7,1.3c3.5,0.8,6.7,2.2,9.4,4.2c2.8,2,5,4.6,6.7,7.9
			C173.1,33.6,173.9,37.7,173.9,42.5z M161,42.5c0-2.9-0.5-5.3-1.4-7.2c-0.9-1.9-2.2-3.4-3.8-4.6c-1.6-1.1-3.4-1.9-5.4-2.4
			c-2-0.5-4.1-0.7-6.2-0.7h-6.2v30h5.9c2.2,0,4.4-0.3,6.4-0.8c2.1-0.5,3.9-1.3,5.4-2.5c1.6-1.2,2.8-2.7,3.8-4.6
			C160.5,47.8,161,45.4,161,42.5z"/>
		<path class="st1" d="M181,37.2c2.1-2,4.6-3.6,7.4-4.6c2.8-1,5.7-1.5,8.7-1.5c3,0,5.6,0.4,7.7,1.1c2.1,0.7,3.8,1.9,5.1,3.5
			c1.3,1.6,2.3,3.6,2.9,5.9c0.6,2.4,0.9,5.2,0.9,8.5v18.2h-10.9v-3.8h-0.2c-0.9,1.5-2.3,2.7-4.2,3.5c-1.9,0.8-3.9,1.2-6.1,1.2
			c-1.4,0-2.9-0.2-4.5-0.6c-1.5-0.4-3-1-4.2-1.9c-1.3-0.9-2.3-2-3.2-3.5c-0.8-1.4-1.2-3.2-1.2-5.4c0-2.6,0.7-4.7,2.1-6.3
			c1.4-1.6,3.3-2.8,5.5-3.7c2.2-0.9,4.7-1.4,7.5-1.7c2.8-0.3,5.4-0.4,8-0.4v-0.6c0-1.8-0.6-3.1-1.9-4c-1.3-0.8-2.8-1.3-4.6-1.3
			c-1.7,0-3.3,0.4-4.9,1.1c-1.6,0.7-2.9,1.6-4,2.6L181,37.2z M202.8,52.6h-1.5c-1.3,0-2.6,0.1-4,0.2c-1.3,0.1-2.5,0.4-3.6,0.7
			c-1,0.3-1.9,0.8-2.6,1.5c-0.7,0.7-1,1.5-1,2.6c0,0.7,0.2,1.3,0.5,1.7c0.3,0.5,0.7,0.9,1.2,1.2c0.5,0.3,1,0.5,1.7,0.6
			c0.6,0.1,1.2,0.2,1.8,0.2c2.4,0,4.3-0.7,5.5-2c1.3-1.3,1.9-3.1,1.9-5.4V52.6z"/>
		<path class="st1" d="M234.7,41.1v13.8c0,1.7,0.3,3,1,3.8c0.7,0.8,1.8,1.3,3.5,1.3c0.6,0,1.2,0,1.8-0.1c0.7-0.1,1.2-0.2,1.6-0.4
			l0.1,8.7c-0.8,0.3-1.9,0.5-3.1,0.8s-2.5,0.3-3.8,0.3c-2.4,0-4.4-0.3-6.1-0.9c-1.6-0.6-3-1.5-3.9-2.6c-1-1.1-1.7-2.5-2.1-4.1
			c-0.4-1.6-0.7-3.3-0.7-5.3V41.1h-5.8v-8.8h5.7v-9.5h11.7v9.5h8.5v8.8H234.7z"/>
		<path class="st1" d="M248.2,37.2c2.1-2,4.6-3.6,7.4-4.6c2.8-1,5.7-1.5,8.7-1.5c3,0,5.6,0.4,7.7,1.1c2.1,0.7,3.8,1.9,5.1,3.5
			c1.3,1.6,2.3,3.6,2.9,5.9c0.6,2.4,0.9,5.2,0.9,8.5v18.2H270v-3.8h-0.2c-0.9,1.5-2.3,2.7-4.2,3.5c-1.9,0.8-3.9,1.2-6.1,1.2
			c-1.4,0-2.9-0.2-4.5-0.6c-1.5-0.4-3-1-4.2-1.9c-1.3-0.9-2.3-2-3.2-3.5c-0.8-1.4-1.2-3.2-1.2-5.4c0-2.6,0.7-4.7,2.1-6.3
			c1.4-1.6,3.3-2.8,5.5-3.7c2.2-0.9,4.7-1.4,7.5-1.7s5.4-0.4,8-0.4v-0.6c0-1.8-0.6-3.1-1.9-4c-1.3-0.8-2.8-1.3-4.6-1.3
			c-1.7,0-3.3,0.4-4.9,1.1c-1.6,0.7-2.9,1.6-4,2.6L248.2,37.2z M270,52.6h-1.5c-1.3,0-2.6,0.1-3.9,0.2c-1.3,0.1-2.5,0.4-3.6,0.7
			c-1,0.3-1.9,0.8-2.6,1.5c-0.7,0.7-1,1.5-1,2.6c0,0.7,0.2,1.3,0.5,1.7c0.3,0.5,0.7,0.9,1.2,1.2c0.5,0.3,1,0.5,1.7,0.6
			c0.6,0.1,1.2,0.2,1.8,0.2c2.4,0,4.3-0.7,5.5-2c1.3-1.3,1.9-3.1,1.9-5.4V52.6z"/>
		<path class="st1" d="M20.4,17h17.7c1.9,0,3.9,0.2,5.8,0.7s3.7,1.2,5.2,2.2c1.5,1,2.8,2.3,3.7,4c0.9,1.6,1.4,3.7,1.4,6.2
			c0,2.9-0.8,5.2-2.5,7.2c-1.6,1.9-3.8,3.3-6.5,4v0.1c1.6,0.2,3.2,0.6,4.6,1.3c1.4,0.7,2.6,1.5,3.6,2.6c1,1.1,1.8,2.3,2.4,3.8
			c0.6,1.5,0.8,3.1,0.8,4.9c0,2.5-0.5,4.6-1.5,6.5c-1,1.8-2.4,3.3-4.1,4.5c-1.7,1.2-3.8,2.1-6.1,2.7c-2.3,0.6-4.8,0.9-7.5,0.9H20.4
			V17z M27.6,38.7h9.4c1.4,0,2.6-0.2,3.9-0.5c1.2-0.3,2.3-0.8,3.2-1.5c0.9-0.7,1.6-1.5,2.2-2.5c0.5-1,0.8-2.2,0.8-3.6
			c0-2.8-1-4.7-3-5.9c-2-1.2-4.8-1.8-8.2-1.8h-8.2V38.7z M27.6,62.2h9c1.5,0,3-0.1,4.5-0.4c1.5-0.3,2.9-0.7,4.1-1.4
			c1.2-0.7,2.2-1.6,3-2.7c0.7-1.1,1.1-2.6,1.1-4.3c0-3-1-5.2-3.1-6.6c-2.1-1.4-5.1-2-9-2h-9.6V62.2z"/>
		<path class="st1" d="M74.5,21.6c0,1.3-0.4,2.3-1.3,3.1c-0.9,0.8-2,1.2-3.2,1.2s-2.3-0.4-3.2-1.3c-0.9-0.8-1.3-1.9-1.3-3.1
			c0-1.3,0.4-2.3,1.3-3.2c0.9-0.8,1.9-1.3,3.2-1.3s2.3,0.4,3.2,1.3C74.1,19.3,74.5,20.3,74.5,21.6z M73.4,68.3h-6.8V34h6.8V68.3z"/>
		<path class="st1" d="M120.1,51.1c0,2.7-0.5,5.1-1.4,7.3c-0.9,2.2-2.2,4.1-3.9,5.8c-1.7,1.6-3.6,2.9-5.9,3.8s-4.7,1.3-7.3,1.3
			c-2.6,0-5.1-0.4-7.3-1.3C92,67,90,65.8,88.4,64.2c-1.6-1.6-2.9-3.5-3.9-5.8c-0.9-2.2-1.4-4.7-1.4-7.3c0-2.7,0.5-5.1,1.4-7.3
			c0.9-2.2,2.2-4.1,3.9-5.7c1.6-1.6,3.6-2.8,5.9-3.7c2.3-0.9,4.7-1.3,7.3-1.3c2.6,0,5,0.4,7.3,1.3c2.3,0.9,4.2,2.1,5.9,3.7
			c1.7,1.6,3,3.5,3.9,5.7C119.7,46,120.1,48.4,120.1,51.1z M113,51.1c0-1.6-0.3-3.2-0.8-4.7c-0.5-1.5-1.2-2.8-2.2-3.9
			c-1-1.1-2.2-2-3.6-2.7c-1.4-0.7-3.1-1-4.9-1c-1.8,0-3.5,0.3-4.9,1c-1.4,0.7-2.6,1.6-3.6,2.7c-1,1.1-1.7,2.4-2.2,3.9
			c-0.5,1.5-0.8,3.1-0.8,4.7c0,1.6,0.3,3.2,0.8,4.7c0.5,1.5,1.2,2.8,2.2,4c1,1.2,2.2,2.1,3.6,2.7c1.4,0.7,3.1,1,4.9,1
			c1.8,0,3.5-0.3,4.9-1c1.4-0.7,2.6-1.6,3.6-2.7c1-1.2,1.7-2.5,2.2-4C112.8,54.3,113,52.7,113,51.1z"/>
	</g>
</g>
</svg>
