<?xml version="1.0" encoding="UTF-8"?>
<svg width="837.45" height="650.4" version="1.1" viewBox="0 0 221.57 172.09" xmlns="http://www.w3.org/2000/svg">
 <polygon id="data-hexagon" class="hexagon" transform="matrix(.26458 0 0 .26458 -9.13 -34.792)" points="530.6 399.8 608.1 265.6 530.6 131.5 375.8 131.5 298.4 265.6 375.8 399.8" fill="#616365"/>
 <text id="data-title" class="title" x="87.947563" y="31.022154" fill="#ffffff" font-family="Montserrat" font-size="12.7px" font-weight="bold" stroke-width=".26458">Search</text>
 <text id="search-subtitle" class="subtitle" x="90.318398" y="41.732388" fill="#ffffff" font-family="Montserrat" font-size="5.6049px" letter-spacing="0px" stroke-width=".26458" word-spacing="0px" style="font-feature-settings:normal;font-variant-caps:normal;font-variant-ligatures:normal;font-variant-numeric:normal;line-height:1.25" xml:space="preserve"><tspan x="90.318398" y="41.732388"><tspan x="90.318398" y="41.732388" fill="#ffffff" font-size="4.9389px" stroke-width=".26458">Search Datasets </tspan></tspan><tspan x="95.498375" y="48.738476"><tspan x="95.498375" y="48.738476" fill="#ffffff" font-size="4.9389px" stroke-width=".26458">using Study </tspan></tspan><tspan x="98.348839" y="55.744549"><tspan x="98.348839" y="55.744549" fill="#ffffff" font-size="4.9389px" stroke-width=".26458">Metadata</tspan></tspan></text>
 <path id="data-border" class="dashed-border" d="m221.24 57.26-21.748 89.296h-47.28v5.1593h4.3656l-11.456 19.844-11.456-19.844h4.3656v-5.1593h-137.77v-89.296z" fill="none" stroke="#616365" stroke-dasharray="3" stroke-miterlimit="10" stroke-width=".52916"/>
 <g id="search-pic-sure-logo" class="logo" transform="translate(-9.9092 27.625)" stroke-width=".26458">
  <g fill="#616365">
   <path class="st54" d="m43.276 58.1v0.13229z"/>
   <path class="st54" d="m45.472 57.333 0.02646 0.02646z"/>
   <path class="st54" d="m43.356 57.73c0 0.02646-0.02646 0.05292-0.02646 0.05292 0.02646 0 0.02646-0.02646 0.02646-0.05292z"/>
   <path class="st54" d="m45.552 57.439c0 0.02646 0.02646 0.02646 0.02646 0.05292 0-0.02646 0-0.05292-0.02646-0.05292z"/>
   <path class="st54" d="m43.303 57.968v0.07938c-0.02646-0.02646-0.02646-0.05292 0-0.07938z"/>
   <path class="st54" d="m43.329 57.836c0 0.02646 0 0.05292-0.02646 0.07937 0-0.02646 0-0.05292 0.02646-0.07937z"/>
   <path class="st54" d="m43.303 58.523c0 0.02646 0 0.05292 0.02646 0.07938-0.02646-0.05292-0.02646-0.07938-0.02646-0.07938z"/>
   <path class="st54" d="m43.329 58.629c0 0.02646 0.02646 0.02646 0.02646 0.05292 0 0 0-0.02646-0.02646-0.05292z"/>
   <path class="st54" d="m45.314 57.174 0.02646 0.02646s-0.02646 0-0.02646-0.02646z"/>
   <path class="st54" d="m43.276 58.206v0.13229z"/>
   <path class="st54" d="m45.816 58.391v0.07937z"/>
   <path class="st54" d="m45.393 57.253 0.02646 0.02646z"/>
   <path class="st54" d="m43.276 58.391v0.07937z"/>
   <path class="st54" d="m45.631 57.518c0 0.02646 0.02646 0.02646 0.02646 0.05292-0.02646-0.02646-0.02646-0.02646-0.02646-0.05292z"/>
   <path class="st54" d="m43.885 57.121c-0.02646 0-0.02646 0.02646-0.05292 0.02646 0.02646-0.02646 0.05292-0.02646 0.05292-0.02646z"/>
   <path class="st54" d="m45.79 57.968v0.07938c0.02646-0.02646 0.02646-0.05292 0-0.07938z"/>
   <path class="st54" d="m43.806 57.174c-0.02646 0-0.02646 0.02646-0.05292 0.02646 0 0 0.02646 0 0.05292-0.02646z"/>
   <path class="st54" d="m45.737 57.73c0 0.02646 0.02646 0.05292 0.02646 0.05292-0.02646 0-0.02646-0.02646-0.02646-0.05292z"/>
   <path class="st54" d="m44.123 57.015c-0.02646 0-0.02646 0-0.05292 0.02646 0-0.02646 0.02646-0.02646 0.05292-0.02646z"/>
   <path class="st54" d="m43.991 57.068c-0.02646 0-0.02646 0.02646-0.05292 0.02646 0.02646-0.02646 0.05292-0.02646 0.05292-0.02646z"/>
   <path class="st54" d="m45.763 57.836c0 0.02646 0 0.05292 0.02646 0.07937 0-0.02646 0-0.05292-0.02646-0.07937z"/>
   <path class="st54" d="m43.62 57.333-0.05292 0.05292z"/>
   <path class="st54" d="m43.462 57.518c0 0.02646-0.02646 0.02646-0.02646 0.05292 0.02646-0.02646 0.02646-0.02646 0.02646-0.05292z"/>
   <path class="st54" d="m43.382 58.735c0 0.02646 0.02646 0.02646 0.02646 0.05292 0 0-0.02646-0.02646-0.02646-0.05292z"/>
   <path class="st54" d="m45.816 58.206v0.13229z"/>
   <path class="st54" d="m43.409 57.624c0 0.02646-0.02646 0.02646-0.02646 0.05292 0-0.02646 0.02646-0.02646 0.02646-0.05292z"/>
   <path class="st54" d="m45.684 57.624c0 0.02646 0.02646 0.02646 0.02646 0.05292 0-0.02646-0.02646-0.02646-0.02646-0.05292z"/>
   <path class="st54" d="m45.816 58.1v0.13229z"/>
   <path class="st54" d="m43.541 57.412c0 0.02646-0.02646 0.02646-0.02646 0.05292 0 0 0.02646-0.02646 0.02646-0.05292z"/>
   <path class="st54" d="m45.711 58.762c0 0.02646-0.02646 0.02646-0.02646 0.05292 0-0.02646 0-0.05292 0.02646-0.05292z"/>
  </g>
  <path class="st82" d="m44.361 59.476c-0.34396 0.76729-0.97896 1.4023-1.7462 1.7198-0.05292-0.60854-0.52917-1.0848-1.1377-1.1642v2.54c0.58208-0.05292 1.0583-0.52917 1.1377-1.1112 0.92604-0.34396 1.6669-1.0848 2.0373-2.0108h-0.10583c-0.05292 0.05292-0.13229 0.02646-0.18521 0.02646z" fill="#c3c3c4"/>
  <path class="st54" d="m45.658 58.867c0 0.02646-0.02646 0.02646-0.02646 0.05292 0-0.02646 0-0.02646 0.02646-0.05292z" fill="#616365"/>
  <path class="st82" d="m40.075 61.222c-1.1906-0.50271-2.0373-1.6669-2.0373-3.0427s0.84667-2.54 2.0373-3.0427c0.05292 0.60854 0.52917 1.0848 1.1112 1.1642v-2.54c-0.58208 0.07937-1.0319 0.52917-1.1112 1.0848-1.3494 0.50271-2.3019 1.8256-2.3019 3.3338 0 1.5346 0.9525 2.831 2.3019 3.3338 0.07937 0.58208 0.52917 1.0319 1.1112 1.1112v-2.5665c-0.60854 0.07937-1.0583 0.55562-1.1112 1.1642z" fill="#c3c3c4"/>
  <path class="st82" d="m42.615 55.11c0.82021 0.34396 1.4817 1.0054 1.7992 1.8256h0.29104c-0.34396-0.97896-1.1112-1.7462-2.0902-2.1167-0.07937-0.58208-0.55562-1.0319-1.1377-1.0848v2.54c0.60854-0.05292 1.0848-0.55562 1.1377-1.1642z" fill="#c3c3c4"/>
  <g fill="#616365">
   <path class="st54" d="m44.89 59.45z"/>
   <path class="st54" d="m43.673 57.28 0.05292-0.05292z"/>
   <path class="st54" d="m45.234 59.291c-0.02646 0-0.02646 0.02646 0 0-0.02646 0.02646-0.02646 0 0 0z"/>
   <path class="st54" d="m45.42 59.158-0.02646 0.02646c0-0.02646 0.02646-0.02646 0.02646-0.02646z"/>
   <path class="st54" d="m45.499 59.053-0.02646 0.02646s0.02646 0 0.02646-0.02646z"/>
   <path class="st54" d="m44.229 56.989c-0.02646 0-0.02646 0-0.05292 0.02646 0.02646-0.02646 0.02646-0.02646 0.05292-0.02646z"/>
   <path class="st54" d="m45.314 59.238-0.02646 0.02646z"/>
   <path class="st54" d="m45.763 58.629c0 0.02646-0.02646 0.05292-0.02646 0.05292s0-0.02646 0.02646-0.05292z"/>
   <path class="st54" d="m45.208 57.121s0.02646 0 0.02646 0.02646c0 0 0-0.02646-0.02646-0.02646z"/>
   <path class="st54" d="m43.673 59.158z"/>
   <path class="st54" d="m43.515 58.947 0.02646 0.02646c-0.02646 0-0.02646 0-0.02646-0.02646z"/>
   <path class="st54" d="m45.128 57.068z"/>
   <path class="st54" d="m43.567 59.053c0.02646 0 0.02646 0 0 0 0.02646 0 0.02646 0 0 0z"/>
   <path class="st54" d="m45.79 58.523c0 0.02646 0 0.05292-0.02646 0.07938 0.02646-0.02646 0.02646-0.05292 0.02646-0.07938z"/>
   <path class="st54" d="m43.435 58.867c0 0.02646 0.02646 0.02646 0.02646 0.05292 0-0.02646-0.02646-0.05292-0.02646-0.05292z"/>
   <path class="st54" d="m45.578 58.973-0.02646 0.02646z"/>
   <path class="st54" d="m44.785 59.476c-0.02646 0-0.02646 0 0 0-0.02646 0-0.02646 0 0 0z"/>
   <path class="st54" d="m45.816 58.338v0.05292z"/>
   <path class="st54" d="m45.816 58.047v0.05292z"/>
   <path class="st54" d="m45.79 58.471v0.05292z"/>
   <path class="st54" d="m45.763 58.576c0 0.02646 0 0.02646-0.02646 0.05292 0.02646 0 0.02646-0.02646 0.02646-0.05292z"/>
   <path class="st54" d="m45.658 57.571c0 0.02646 0.02646 0.02646 0.02646 0.05292 0-0.02646-0.02646-0.02646-0.02646-0.05292z"/>
   <path class="st54" d="m45.128 57.095c0.02646 0.02646 0.05292 0.02646 0.07937 0.05292-0.02646-0.02646-0.05292-0.05292-0.07937-0.05292z"/>
   <path class="st54" d="m45.34 57.201 0.05292 0.05292c-0.02646 0-0.02646-0.02646-0.05292-0.05292z"/>
   <path class="st54" d="m44.89 59.45c-0.02646 0-0.07937 0.02646-0.10583 0.02646 0.02646 0 0.05292-0.02646 0.10583-0.02646z"/>
   <path class="st54" d="m45.234 57.148c0.02646 0.02646 0.05292 0.02646 0.05292 0.05292 0-0.02646-0.02646-0.05292-0.05292-0.05292z"/>
   <path class="st54" d="m45.208 59.317c-0.02646 0.02646-0.05292 0.02646-0.07937 0.05292 0.02646-0.02646 0.05292-0.05292 0.07937-0.05292z"/>
   <path class="st54" d="m45.393 59.185c-0.02646 0.02646-0.05292 0.02646-0.05292 0.05292 0-0.02646 0.02646-0.05292 0.05292-0.05292z"/>
   <path class="st54" d="m45.287 59.238c-0.02646 0.02646-0.05292 0.02646-0.07937 0.05292 0.05292 0 0.07937-0.02646 0.07937-0.05292z"/>
   <path class="st54" d="m45.763 57.783c0 0.02646 0 0.02646 0.02646 0.05292-0.02646 0-0.02646-0.02646-0.02646-0.05292z"/>
   <path class="st54" d="m45.711 57.677c0 0.02646 0.02646 0.02646 0.02646 0.05292 0-0.02646-0.02646-0.02646-0.02646-0.05292z"/>
   <path class="st54" d="m45.79 57.915v0.05292z"/>
   <path class="st54" d="m45.737 58.709c0 0.02646-0.02646 0.02646-0.02646 0.05292 0-0.02646 0-0.05292 0.02646-0.05292z"/>
   <path class="st54" d="m45.525 57.386 0.05292 0.05292z"/>
   <path class="st54" d="m45.42 57.28 0.05292 0.05292z"/>
   <path class="st54" d="m45.578 57.465c0 0.02646 0.02646 0.02646 0.02646 0.05292 0 0 0-0.02646-0.02646-0.05292z"/>
   <path class="st54" d="m45.472 59.106-0.05292 0.05292c0.02646-0.02646 0.02646-0.05292 0.05292-0.05292z"/>
   <path class="st54" d="m43.329 58.576c0 0.02646 0 0.02646 0.02646 0.05292-0.02646-0.02646-0.02646-0.02646-0.02646-0.05292z"/>
   <path class="st54" d="m43.276 58.338v0.05292z"/>
   <path class="st54" d="m43.303 58.471v0.05292z"/>
   <path class="st54" d="m43.409 58.788c0 0.02646 0.02646 0.02646 0.02646 0.05292 0 0-0.02646-0.02646-0.02646-0.05292z"/>
   <path class="st54" d="m43.356 58.682c0 0.02646 0.02646 0.02646 0.02646 0.05292 0 0-0.02646-0.02646-0.02646-0.05292z"/>
   <path class="st54" d="m43.329 57.783c0 0.02646 0 0.02646-0.02646 0.05292 0.02646 0 0.02646-0.02646 0.02646-0.05292z"/>
   <path class="st54" d="m45.684 58.815c0 0.02646-0.02646 0.02646-0.02646 0.05292 0-0.02646 0-0.02646 0.02646-0.05292z"/>
   <path class="st54" d="m43.303 57.915v0.05292z"/>
   <path class="st54" d="m44.652 59.502c0.02646 0 0.07937 0 0.10583-0.02646-0.02646 0-0.07937 0-0.10583 0.02646z"/>
   <path class="st54" d="m43.382 57.677c0 0.02646-0.02646 0.02646-0.02646 0.05292 0-0.02646 0.02646-0.02646 0.02646-0.05292z"/>
   <path class="st54" d="m43.62 57.333 0.05292-0.05292c-0.02646 0.02646-0.05292 0.02646-0.05292 0.05292z"/>
   <path class="st54" d="m43.462 58.894c0 0.02646 0.02646 0.02646 0.02646 0.05292 0 0 0-0.02646-0.02646-0.05292z"/>
   <path class="st54" d="m43.647 59.132-0.05292-0.05292c0.02646 0.02646 0.05292 0.02646 0.05292 0.05292z"/>
   <path class="st54" d="m43.541 59c0.02646 0.02646 0.02646 0.05292 0.05292 0.05292z"/>
   <path class="st54" d="m44.361 59.476c-0.26458-0.02646-0.50271-0.15875-0.68792-0.34396 0.18521 0.18521 0.42333 0.3175 0.68792 0.34396z"/>
   <path class="st54" d="m43.276 58.047v0.05292z"/>
   <path class="st54" d="m44.89 56.989c-0.05292-0.02646-0.13229-0.02646-0.21167-0.05292 0.07937 0.02646 0.15875 0.02646 0.21167 0.05292z"/>
   <path class="st54" d="m45.631 58.92c0 0.02646-0.02646 0.02646-0.05292 0.05292 0.02646-0.02646 0.02646-0.05292 0.05292-0.05292z"/>
   <path class="st54" d="m44.414 56.936c-0.05292 0-0.13229 0.02646-0.18521 0.02646 0.05292 0 0.10583-0.02646 0.18521-0.02646z"/>
   <path class="st54" d="m44.176 56.989c-0.02646 0-0.05292 0.02646-0.05292 0.02646s0.02646-0.02646 0.05292-0.02646z"/>
   <path class="st54" d="m43.435 57.571c0 0.02646-0.02646 0.02646-0.02646 0.05292 0-0.02646 0.02646-0.02646 0.02646-0.05292z"/>
   <path class="st54" d="m45.552 59-0.05292 0.05292c0.02646 0 0.02646-0.02646 0.05292-0.05292z"/>
   <path class="st54" d="m43.753 57.201c-0.02646 0-0.02646 0.02646-0.05292 0.02646 0.02646 0 0.02646 0 0.05292-0.02646z"/>
   <path class="st54" d="m43.567 57.386c0 0.02646-0.02646 0.02646-0.02646 0.05292 0-0.02646 0.02646-0.05292 0.02646-0.05292z"/>
   <path class="st54" d="m45.128 57.068z"/>
   <path class="st54" d="m43.515 57.465c0 0.02646-0.02646 0.02646-0.02646 0.05292 0-0.02646 0-0.02646 0.02646-0.05292z"/>
   <path class="st54" d="m43.858 57.148c-0.02646 0-0.02646 0.02646-0.05292 0.02646 0 0 0.02646-0.02646 0.05292-0.02646z"/>
   <path class="st54" d="m43.938 57.095c-0.02646 0-0.02646 0.02646-0.05292 0.02646 0.02646-0.02646 0.05292-0.02646 0.05292-0.02646z"/>
   <path class="st54" d="m44.07 57.042c-0.02646 0-0.02646 0.02646-0.05292 0.02646 0-0.02646 0.02646-0.02646 0.05292-0.02646z"/>
  </g>
  <path class="st82" d="m44.89 56.989c-0.05292-0.02646-0.13229-0.02646-0.21167-0.05292h-0.29104c-0.05292 0-0.13229 0.02646-0.18521 0.02646-0.02646 0-0.02646 0-0.05292 0.02646-0.02646 0-0.05292 0.02646-0.05292 0.02646-0.02646 0-0.02646 0-0.05292 0.02646-0.02646 0-0.02646 0.02646-0.05292 0.02646s-0.02646 0.02646-0.05292 0.02646-0.02646 0.02646-0.05292 0.02646-0.02646 0.02646-0.05292 0.02646-0.02646 0.02646-0.05292 0.02646-0.02646 0.02646-0.05292 0.02646-0.02646 0.02646-0.05292 0.02646-0.02646 0.02646-0.05292 0.05292l-0.10584 0.10584c0 0.02646-0.02646 0.02646-0.02646 0.05292s-0.02646 0.02646-0.02646 0.05292-0.02646 0.02646-0.02646 0.05292-0.02646 0.02646-0.02646 0.05292-0.02646 0.02646-0.02646 0.05292-0.02646 0.02646-0.02646 0.05292-0.02646 0.02646-0.02646 0.05292-0.02646 0.05292-0.02646 0.05292c0 0.02646 0 0.02646-0.02646 0.05292 0 0.02646 0 0.05292-0.02646 0.07937v0.635c0 0.02646 0 0.05292 0.02646 0.07938 0 0.02646 0 0.02646 0.02646 0.05292 0 0.02646 0.02646 0.02646 0.02646 0.05292s0.02646 0.02646 0.02646 0.05292 0.02646 0.02646 0.02646 0.05292 0.02646 0.02646 0.02646 0.05292 0.02646 0.02646 0.02646 0.05292 0.02646 0.02646 0.02646 0.05292l0.02646 0.02646c0.02646 0.02646 0.02646 0.05292 0.05292 0.05292l0.02646 0.02646c0.02646 0.02646 0.02646 0.05292 0.05292 0.05292 0.18521 0.18521 0.42333 0.29104 0.68792 0.34396 0.05292 0 0.10583 0.02646 0.18521 0.02646h0.10583c0.02646 0 0.07937 0 0.10583-0.02646 0.02646 0 0.07937-0.02646 0.10583-0.02646v-2.5135z" fill="#c3c3c4"/>
  <path class="st83" d="m45.552 59 0.07938-0.07938c0-0.02646 0.02646-0.02646 0.02646-0.05292s0.02646-0.02646 0.02646-0.05292 0.02646-0.02646 0.02646-0.05292 0.02646-0.02646 0.02646-0.05292 0.02646-0.05292 0.02646-0.05292c0-0.02646 0.02646-0.02646 0.02646-0.05292s0-0.05292 0.02646-0.07938v-0.635c0-0.02646 0-0.05292-0.02646-0.07937 0-0.02646 0-0.02646-0.02646-0.05292 0-0.02646-0.02646-0.05292-0.02646-0.05292 0-0.02646-0.02646-0.02646-0.02646-0.05292s-0.02646-0.02646-0.02646-0.05292-0.02646-0.02646-0.02646-0.05292-0.02646-0.02646-0.02646-0.05292-0.02646-0.02646-0.02646-0.05292-0.02646-0.02646-0.02646-0.05292l-0.23814-0.23814c-0.02646-0.02646-0.05292-0.02646-0.05292-0.05292 0 0-0.02646 0-0.02646-0.02646-0.02646-0.02646-0.05292-0.02646-0.07938-0.05292h-0.02646v2.2754c0.02646-0.02646 0.05292-0.02646 0.07937-0.05292 0 0 0.02646 0 0.02646-0.02646 0.02646-0.02646 0.05292-0.02646 0.07937-0.05292l0.02646-0.02646c0.02646-0.02646 0.05292-0.02646 0.05292-0.05292l0.10584-0.10584c0 0.07937 0 0.05292 0.02646 0.02646z" fill="#858485"/>
  <path class="st54" d="m44.996 59.397z" fill="#616365"/>
  <g fill="#858485">
   <path class="st83" d="m47.51 55.057c0-0.05292 0.02646-0.10583 0.05292-0.15875 0.02646-0.02646 0.07937-0.05292 0.15875-0.05292h2.884c0.21167 0 0.39688 0.02646 0.58208 0.07937 0.18521 0.05292 0.34396 0.13229 0.50271 0.23812s0.29104 0.21167 0.42333 0.37042c0.13229 0.13229 0.23812 0.29104 0.3175 0.44979 0.07937 0.15875 0.15875 0.34396 0.18521 0.50271 0.05292 0.18521 0.07937 0.37042 0.07937 0.55562 0 0.26458-0.05292 0.52917-0.15875 0.79375s-0.23812 0.50271-0.42333 0.68792c-0.18521 0.21167-0.39688 0.37042-0.66146 0.50271s-0.52917 0.18521-0.84667 0.18521h-1.3758v2.1696c0 0.13229-0.07938 0.18521-0.21167 0.18521h-1.3494c-0.05292 0-0.10583-0.02646-0.13229-0.05292s-0.05292-0.07937-0.05292-0.15875v-6.2971zm3.4131 1.9844c0-0.07937-0.02646-0.18521-0.05292-0.26458s-0.07937-0.15875-0.13229-0.23812-0.13229-0.13229-0.21167-0.18521c-0.07937-0.05292-0.18521-0.07937-0.29104-0.07937h-0.9525v1.5081h0.9525c0.10583 0 0.21167-0.02646 0.29104-0.05292 0.07938-0.05292 0.15875-0.10583 0.21167-0.15875 0.05292-0.07938 0.10583-0.15875 0.13229-0.23812 0.05292-0.10583 0.05292-0.18521 0.05292-0.29104z"/>
   <path class="st83" d="m53.331 55.057c0-0.05292 0.02646-0.10583 0.05292-0.13229s0.07937-0.05292 0.15875-0.05292h1.3229c0.05292 0 0.10583 0.02646 0.13229 0.05292 0.05292 0.02646 0.07937 0.07937 0.07937 0.13229v6.3235c0 0.13229-0.07937 0.21167-0.21167 0.21167h-1.3229c-0.13229 0-0.21167-0.07937-0.21167-0.21167z"/>
   <path class="st83" d="m61.321 55.348c0.05292 0.02646 0.07937 0.07937 0.10583 0.10583 0.02646 0.05292 0.02646 0.10583-0.02646 0.18521l-0.76729 1.0848c-0.02646 0.05292-0.07937 0.07938-0.10583 0.07938s-0.07938 0-0.13229-0.02646c-0.15875-0.10583-0.3175-0.18521-0.47625-0.26458-0.18521-0.05292-0.37042-0.07937-0.55562-0.07937-0.23812 0-0.47625 0.05292-0.68792 0.13229-0.21167 0.10583-0.39688 0.21167-0.52917 0.39688-0.15875 0.15875-0.26458 0.34396-0.34396 0.58208-0.07938 0.21167-0.13229 0.44979-0.13229 0.68792s0.05292 0.47625 0.13229 0.68792 0.21167 0.39688 0.34396 0.55562c0.15875 0.15875 0.3175 0.29104 0.52917 0.37042 0.21167 0.10583 0.42333 0.13229 0.68792 0.13229 0.21167 0 0.39688-0.02646 0.58208-0.10583 0.18521-0.05292 0.34396-0.15875 0.50271-0.26458 0.05292-0.02646 0.10583-0.05292 0.13229-0.05292s0.07937 0.02646 0.10583 0.07937l0.76729 1.1112c0.02646 0.07937 0.02646 0.13229 0.02646 0.15875-0.02646 0.05292-0.05292 0.07937-0.10583 0.10583-0.29104 0.18521-0.58208 0.34396-0.92604 0.44979-0.3175 0.10583-0.66146 0.15875-1.0319 0.15875-0.3175 0-0.635-0.05292-0.92604-0.13229s-0.58208-0.18521-0.82021-0.34396c-0.26458-0.15875-0.50271-0.34396-0.68792-0.52917-0.21167-0.21167-0.39688-0.44979-0.52917-0.68792-0.15875-0.26458-0.26458-0.52917-0.34396-0.82021-0.07937-0.29104-0.13229-0.60854-0.13229-0.92604s0.05292-0.635 0.13229-0.92604 0.18521-0.58208 0.34396-0.82021c0.15875-0.26458 0.34396-0.50271 0.52917-0.71438 0.21167-0.21167 0.44979-0.39688 0.68792-0.52917 0.26458-0.15875 0.52917-0.26458 0.82021-0.34396 0.29104-0.07937 0.60854-0.13229 0.92604-0.13229 0.37042 0 0.71438 0.05292 1.0319 0.15875 0.29104 0.13229 0.58208 0.26458 0.87312 0.47625z"/>
  </g>
  <path class="st82" d="m62.247 58.391c0-0.13229 0.07937-0.21167 0.21167-0.21167h3.0956c0.05292 0 0.10583 0.02646 0.13229 0.05292s0.05292 0.07938 0.05292 0.15875v0.92604c0 0.05292-0.02646 0.10583-0.05292 0.13229-0.02646 0.05292-0.07938 0.07937-0.13229 0.07937h-3.0956c-0.13229 0-0.21167-0.07937-0.21167-0.21167z" fill="#c3c3c4"/>
  <g fill="#c6b39a">
   <path class="st84" d="m67.671 59.397c0.05292 0.05292 0.10583 0.10583 0.18521 0.15875 0.07937 0.07937 0.15875 0.13229 0.26458 0.21167 0.15875 0.10583 0.3175 0.18521 0.44979 0.23812 0.15875 0.05292 0.3175 0.07937 0.47625 0.07937s0.29104-0.02646 0.39688-0.05292 0.18521-0.07938 0.23812-0.13229c0.05292-0.05292 0.10583-0.13229 0.13229-0.21167s0.02646-0.15875 0.02646-0.23812c0-0.10583-0.02646-0.18521-0.10583-0.23812-0.07937-0.07938-0.15875-0.13229-0.26458-0.18521s-0.21167-0.10583-0.3175-0.15875-0.21167-0.07937-0.29104-0.10583c-0.37042-0.13229-0.68792-0.26458-0.9525-0.39688-0.26458-0.15875-0.50271-0.3175-0.68792-0.47625-0.18521-0.18521-0.3175-0.37042-0.39688-0.58208-0.07937-0.21167-0.13229-0.44979-0.13229-0.71438 0-0.29104 0.05292-0.52917 0.15875-0.76729s0.26458-0.42333 0.47625-0.58208 0.44979-0.29104 0.76729-0.37042c0.29104-0.07937 0.635-0.13229 0.97896-0.13229 0.26458 0 0.52917 0.02646 0.79375 0.10583 0.26458 0.05292 0.50271 0.15875 0.74083 0.29104 0.10583 0.05292 0.21167 0.13229 0.29104 0.18521s0.18521 0.13229 0.23812 0.18521c0.07937 0.05292 0.13229 0.10583 0.15875 0.18521 0.05292 0.05292 0.05292 0.10583 0.05292 0.13229s0 0.07937-0.02646 0.10583-0.05292 0.07937-0.07937 0.10583l-0.68792 0.74083c-0.05292 0.05292-0.10583 0.07937-0.15875 0.07937s-0.07937 0-0.10583-0.02646-0.07937-0.05292-0.10583-0.07937l-0.05292-0.02646c-0.05292-0.05292-0.13229-0.10583-0.21167-0.15875-0.07937-0.05292-0.15875-0.10583-0.23812-0.15875s-0.18521-0.07937-0.26458-0.10583c-0.10583-0.02646-0.18521-0.05292-0.29104-0.05292s-0.18521 0-0.29104 0.02646c-0.07937 0.02646-0.15875 0.05292-0.23812 0.07937-0.07937 0.02646-0.13229 0.07937-0.15875 0.13229s-0.05292 0.13229-0.05292 0.21167c0 0.07937 0.02646 0.15875 0.05292 0.21167 0.05292 0.05292 0.10583 0.13229 0.18521 0.18521s0.18521 0.10583 0.3175 0.15875 0.26458 0.10583 0.44979 0.15875c0.3175 0.10583 0.60854 0.21167 0.87312 0.34396 0.26458 0.10583 0.50271 0.26458 0.68792 0.42333s0.34396 0.34396 0.44979 0.55562c0.10583 0.21167 0.15875 0.47625 0.15875 0.79375 0 0.34396-0.07937 0.635-0.21167 0.89958-0.13229 0.26458-0.3175 0.50271-0.55562 0.68792s-0.50271 0.34396-0.84667 0.44979c-0.3175 0.10583-0.66146 0.15875-1.0319 0.15875-0.34396 0-0.68792-0.05292-1.0319-0.18521-0.34396-0.13229-0.635-0.29104-0.92604-0.50271-0.13229-0.07937-0.21167-0.18521-0.3175-0.26458-0.07937-0.07938-0.15875-0.15875-0.18521-0.21167l-0.02646-0.02646c-0.07937-0.07937-0.10583-0.13229-0.10583-0.18521s0.02646-0.10583 0.10583-0.18521l0.79375-0.74083c0.05292-0.05292 0.10583-0.07937 0.15875-0.07937 0.02646 0 0.05292 0 0.07937 0.02646 0.13229-0.02646 0.18521 0 0.21167 0.02646z"/>
   <path class="st84" d="m74.153 58.894c0 0.21167 0.02646 0.42333 0.10583 0.58208 0.05292 0.15875 0.13229 0.29104 0.23812 0.37042 0.10583 0.10583 0.21167 0.15875 0.34396 0.21167s0.26458 0.07937 0.42333 0.07937 0.29104-0.02646 0.42333-0.07937c0.13229-0.05292 0.26458-0.13229 0.34396-0.23812 0.10583-0.10583 0.18521-0.23812 0.23812-0.39688 0.05292-0.15875 0.07937-0.34396 0.07937-0.52917v-3.8365c0-0.05292 0.02646-0.10583 0.05292-0.13229s0.07937-0.05292 0.15875-0.05292h1.3229c0.07937 0 0.13229 0.02646 0.15875 0.05292 0.02646 0.05292 0.05292 0.07937 0.05292 0.13229v3.81c0 0.52917-0.07937 0.97896-0.23812 1.3229-0.15875 0.37042-0.37042 0.66146-0.635 0.87312-0.26458 0.21167-0.55562 0.37042-0.92604 0.47625-0.34396 0.10583-0.71438 0.13229-1.0848 0.13229s-0.74083-0.05292-1.0848-0.15875c-0.34396-0.10583-0.66146-0.26458-0.92604-0.47625s-0.47625-0.50271-0.635-0.87312-0.23812-0.79375-0.23812-1.3229v-3.81c0-0.05292 0.02646-0.10583 0.05292-0.13229 0.02646-0.05292 0.07937-0.05292 0.13229-0.05292h1.3494c0.05292 0 0.07937 0.02646 0.13229 0.05292s0.07937 0.07937 0.07937 0.13229v3.8629z"/>
   <path class="st84" d="m79.075 55.057c0-0.05292 0.02646-0.10583 0.05292-0.15875 0.02646-0.02646 0.07937-0.05292 0.15875-0.05292h2.9369c0.3175 0 0.60854 0.05292 0.87312 0.18521 0.26458 0.10583 0.50271 0.26458 0.71438 0.47625s0.37042 0.42333 0.47625 0.68792c0.10583 0.26458 0.18521 0.55562 0.18521 0.84667 0 0.21167-0.02646 0.39688-0.07937 0.58208-0.05292 0.18521-0.13229 0.37042-0.23812 0.52917s-0.21167 0.3175-0.34396 0.44979-0.29104 0.23812-0.44979 0.34396l1.1642 2.196c0.02646 0.05292 0.05292 0.07937 0.07937 0.15875 0.02646 0.05292 0.05292 0.10583 0.05292 0.15875s-0.02646 0.07938-0.05292 0.10583c-0.02646 0.02646-0.07937 0.02646-0.13229 0.02646h-1.561c-0.05292 0-0.10583-0.02646-0.13229-0.05292-0.05292-0.02646-0.07937-0.07938-0.07937-0.13229l-1.1112-2.0638h-0.74083v2.0373c0 0.13229-0.07937 0.18521-0.21167 0.18521h-1.3494c-0.05292 0-0.10583-0.02646-0.13229-0.05292s-0.05292-0.07937-0.05292-0.15875v-6.2971zm3.5454 2.0108c0-0.07937-0.02646-0.18521-0.05292-0.26458-0.02646-0.07938-0.07937-0.18521-0.13229-0.23812-0.05292-0.07937-0.13229-0.13229-0.21167-0.18521-0.07937-0.05292-0.18521-0.07937-0.29104-0.10583-0.07937 0-0.15875 0-0.23812-0.02646h-0.87312v1.6669h0.97896c0.05292 0 0.07937 0 0.13229-0.02646 0.10583 0 0.21167-0.05292 0.29104-0.10583 0.07937-0.05292 0.15875-0.10583 0.21167-0.18521 0.05292-0.07937 0.10583-0.15875 0.13229-0.23812 0.05292-0.10583 0.05292-0.18521 0.05292-0.29104z"/>
   <path class="st84" d="m85.081 55.057c0-0.0529 0.02646-0.10583 0.05292-0.15875 0.02646-0.0265 0.07937-0.0529 0.15875-0.0529h4.4979c0.07937 0 0.10583 0.0265 0.15875 0.0529 0.02646 0.0265 0.05292 0.0794 0.05292 0.15875v1.1112c0 0.0529-0.02646 0.10584-0.05292 0.15875-0.02646 0.0529-0.07937 0.0794-0.15875 0.0794h-2.9369v1.1112h2.2754c0.05292 0 0.10583 0.0265 0.13229 0.0529 0.02646 0.0265 0.05292 0.0794 0.05292 0.13229v0.97896c0 0.0529-0.02646 0.0794-0.05292 0.13229-0.02646 0.0265-0.07938 0.0529-0.13229 0.0529h-2.2754v1.1642h3.0427c0.13229 0 0.21167 0.0794 0.21167 0.21167v1.1377c0 0.0265 0 0.0529-0.02646 0.0794 0 0.0794-0.07937 0.13229-0.18521 0.13229h-4.5773c-0.05292 0-0.10583-0.0265-0.13229-0.0529-0.02646-0.0265-0.05292-0.0794-0.05292-0.15875v-6.3236z"/>
  </g>
 </g>
 <g id="search-gen3-logo" class="logo" transform="translate(43.008 27.625)">
  <g transform="matrix(.26458 0 0 .26458 -79.517 -160.87)" fill="#414042">
   <path id="Fill-1_4_" class="st7" d="m695.6 808.5c0-7.6 4.4-11.4 9.2-11.4 2.9 0 4.5 0.8 6.2 2.4l-1.6 1.7c-1.3-1.2-2.8-1.8-4.6-1.8-3.2 0-6.2 2.2-6.2 9 0 6.4 2 9.1 5.8 9.1 1.5 0 2.9-0.4 4.2-1.1v-6.7h-4.3l-0.3-2.3h7.4v10.6c-2 1.1-4.1 1.9-7.1 1.9-5.4 0-8.7-3.8-8.7-11.4"/>
   <polygon id="Fill-3_4_" class="st7" points="716.4 818.4 723.8 818.4 723.8 819.9 714.4 819.9 714.4 804.4 723.6 804.4 723.3 806 716.4 806 716.4 811.3 722.4 811.3 722.4 812.9 716.4 812.9"/>
   <path id="Fill-5_4_" class="st7" d="m728.4 806.3c0 0.7 0.3 3.5 0.3 5.9v7.8h-1.8v-15.5h2.6l5.3 13.7c0-0.6-0.3-3.1-0.3-5.9v-7.8h1.8v15.5h-2.6z"/>
  </g>
  <g id="Group-9_4_" transform="matrix(.26458 0 0 .26458 -62.231 -160.87)">
   <g id="Fill-7-Clipped_4_">
    <mask x="674.1" y="796.6" width="14.4" height="22.9" maskUnits="userSpaceOnUse">
     <g class="st85" filter="url(#Adobe_OpacityMaskFilter_24_)">
      <polygon class="st9" points="674.1 796.6 688.5 796.6 688.5 819.5 674.1 819.5" clip-rule="evenodd" fill="#fff" fill-rule="evenodd"/>
     </g>
    </mask>
    <path id="Fill-7_4_" class="st86" d="m680.6 808.8v-2.8c1.4 0 2.4-0.2 2.9-0.5 0.9-0.6 1.3-1.4 1.3-2.7 0-0.9-0.3-1.7-1-2.3-0.6-0.6-1.5-0.9-2.5-0.9-0.9 0-1.7 0.2-2.2 0.7s-0.9 1.2-1.1 2.3h-3.4c0.4-2.1 1.1-3.6 2.2-4.6s2.6-1.5 4.6-1.5 3.6 0.6 4.8 1.7 1.9 2.6 1.9 4.4c0 2-0.8 3.6-2.5 4.7 1.9 1.1 2.8 2.8 2.8 5.3 0 2-0.7 3.6-2 4.9-1.4 1.3-3.1 1.9-5.3 1.9-2.7 0-4.7-1-6.1-2.9-0.5-0.8-0.9-2-1-3.4h3.3c0.2 1.1 0.6 1.9 1.3 2.5s1.6 0.9 2.7 0.9 2-0.4 2.7-1.1 1.1-1.7 1.1-2.8c0-1.5-0.5-2.6-1.6-3.2-0.6-0.4-1.6-0.6-2.9-0.6" fill="#daca2e" mask="url(#mask-2_4_)"/>
   </g>
  </g>
  <g id="Group_4_" transform="matrix(.26458 0 0 .26458 -54.823 -157.61)">
   <g id="Group-12_4_" transform="translate(0,1.5138)">
    <g id="Fill-10-Clipped_4_">
     <mask x="664.9" y="791.8" width="3.9" height="5.4" maskUnits="userSpaceOnUse">
      <g class="st87" filter="url(#Adobe_OpacityMaskFilter_25_)">
       <polygon class="st9" points="664.9 791.8 668.8 791.8 668.8 797.3 664.9 797.3" clip-rule="evenodd" fill="#fff" fill-rule="evenodd"/>
      </g>
     </mask>
     <path id="Fill-10_4_" class="st88" d="m666.3 792.5h-0.5v4h0.5c0.8 0 1.5-0.4 1.5-2.1 0-1.6-0.7-1.9-1.5-1.9m-0.1 4.8h-1.4v-5.4h1.3c1.3 0 2.7 0.4 2.7 2.7 0 2.2-1.3 2.7-2.6 2.7" fill="#414042" mask="url(#mask-4_4_)"/>
    </g>
   </g>
   <g id="Group-15_4_" transform="translate(7.1795,3.0799)">
    <g id="Fill-13-Clipped_4_">
     <mask x="662.9" y="791.4" width="3.8" height="4.4" maskUnits="userSpaceOnUse">
      <g class="st89" filter="url(#Adobe_OpacityMaskFilter_26_)">
       <polygon class="st9" points="662.9 791.4 666.7 791.4 666.7 795.8 662.9 795.8" clip-rule="evenodd" fill="#fff" fill-rule="evenodd"/>
      </g>
     </mask>
     <path id="Fill-13_4_" class="st90" d="m665.5 794.6v-0.9h-0.5c-0.8 0-1.2 0.3-1.2 0.8 0 0.4 0.2 0.7 0.7 0.7 0.4-0.1 0.8-0.3 1-0.6m1.2 0.6-0.2 0.6c-0.4 0-0.7-0.2-0.9-0.6-0.3 0.4-0.8 0.6-1.3 0.6-0.9 0-1.4-0.5-1.4-1.3 0-0.9 0.7-1.4 2-1.4h0.6v-0.3c0-0.5-0.3-0.8-0.9-0.8-0.3 0-0.7 0.1-1.1 0.2l-0.2-0.6c0.5-0.2 1.1-0.3 1.5-0.3 1.1 0 1.7 0.5 1.7 1.4v1.9c-0.1 0.4 0 0.5 0.2 0.6" fill="#414042" mask="url(#mask-6_4_)"/>
    </g>
   </g>
   <path id="Fill-16_4_" class="st7" d="m678 798.9c-1 0-1.5-0.5-1.5-1.4v-2.3h-0.9v-0.6h0.9v-0.9l0.9-0.1v1h1.4l-0.1 0.6h-1.3v2.2c0 0.4 0.2 0.7 0.7 0.7 0.3 0 0.6-0.1 0.8-0.2l0.3 0.6c-0.3 0.2-0.7 0.4-1.2 0.4" fill="#414042"/>
   <g id="Group-20_4_" transform="translate(23.134,3.0799)">
    <g id="Fill-18-Clipped_4_">
     <mask x="657.6" y="791.4" width="3.8" height="4.4" maskUnits="userSpaceOnUse">
      <g class="st91" filter="url(#Adobe_OpacityMaskFilter_27_)">
       <polygon class="st9" points="657.6 791.4 661.4 791.4 661.4 795.8 657.6 795.8" clip-rule="evenodd" fill="#fff" fill-rule="evenodd"/>
      </g>
     </mask>
     <path id="Fill-18_4_" class="st92" d="m660.2 794.6v-0.9h-0.5c-0.8 0-1.2 0.3-1.2 0.8 0 0.4 0.2 0.7 0.7 0.7 0.4-0.1 0.8-0.3 1-0.6m1.2 0.6-0.2 0.6c-0.4 0-0.7-0.2-0.9-0.6-0.3 0.4-0.8 0.6-1.3 0.6-0.9 0-1.4-0.5-1.4-1.3 0-0.9 0.7-1.4 2-1.4h0.6v-0.3c0-0.5-0.3-0.8-0.9-0.8-0.3 0-0.7 0.1-1.1 0.2l-0.2-0.6c0.5-0.2 1.1-0.3 1.5-0.3 1.1 0 1.7 0.5 1.7 1.4v1.9c-0.1 0.4 0 0.5 0.2 0.6" fill="#414042" mask="url(#mask-8_4_)"/>
    </g>
   </g>
  </g>
  <g id="Group-2_4_" transform="matrix(.26458 0 0 .26458 -55.234 -154.75)">
   <g id="Group-23_4_" transform="translate(.19943 1.5138)">
    <g id="Fill-21-Clipped_4_">
     <mask x="665.6" y="788.2" width="4.2" height="5.7" maskUnits="userSpaceOnUse">
      <g class="st93" filter="url(#Adobe_OpacityMaskFilter_28_)">
       <polygon class="st9" points="665.6 788.2 669.8 788.2 669.8 793.8 665.6 793.8" clip-rule="evenodd" fill="#fff" fill-rule="evenodd"/>
      </g>
     </mask>
     <path id="Fill-21_4_" class="st94" d="m669.7 788.7-0.5 0.6c-0.3-0.3-0.7-0.4-1.1-0.4-0.8 0-1.5 0.6-1.5 2.1s0.7 2.1 1.5 2.1c0.6 0 0.9-0.2 1.3-0.5l0.4 0.6c-0.4 0.4-0.9 0.6-1.7 0.6-1.4 0-2.5-1-2.5-2.8s1.1-2.8 2.5-2.8c0.7 0 1.1 0.2 1.6 0.5" fill="#414042" mask="url(#mask-10_4_)"/>
    </g>
   </g>
   <g id="Group-26_4_" transform="translate(8.1766,3.0799)">
    <g id="Fill-24-Clipped_4_">
     <mask x="663" y="787.9" width="3.8" height="4.4" maskUnits="userSpaceOnUse">
      <g class="st95" filter="url(#Adobe_OpacityMaskFilter_29_)">
       <polygon class="st9" points="663 787.9 666.8 787.9 666.8 792.2 663 792.2" clip-rule="evenodd" fill="#fff" fill-rule="evenodd"/>
      </g>
     </mask>
     <path id="Fill-24_4_" class="st96" d="m663.9 790.1c0 1 0.3 1.5 1 1.5s1-0.5 1-1.5-0.3-1.5-1-1.5c-0.6 0-1 0.4-1 1.5m2.9 0c0 1.3-0.7 2.2-1.9 2.2s-1.9-0.8-1.9-2.2c0-1.3 0.7-2.2 1.9-2.2s1.9 0.8 1.9 2.2" fill="#414042" mask="url(#mask-12_4_)"/>
    </g>
   </g>
   <path id="Fill-27_4_" class="st7" d="m680.5 792.1v3.1h-0.8v-3c0-0.4 0-0.6-0.3-0.6-0.2 0-0.4 0.1-0.6 0.4v3.2h-0.8v-3c0-0.4 0-0.6-0.3-0.6-0.2 0-0.4 0.1-0.6 0.4v3.2h-0.8v-4.2h0.7l0.1 0.4c0.2-0.3 0.5-0.6 0.9-0.6 0.3 0 0.6 0.1 0.7 0.5 0.2-0.3 0.5-0.5 0.9-0.5 0.5 0.1 0.9 0.4 0.9 1.3" fill="#414042"/>
   <path id="Fill-29_4_" class="st7" d="m685.8 792.1v3.1h-0.8v-3c0-0.4 0-0.6-0.3-0.6-0.2 0-0.4 0.1-0.6 0.4v3.2h-0.7v-3c0-0.4 0-0.6-0.3-0.6-0.2 0-0.4 0.1-0.6 0.4v3.2h-0.8v-4.2h0.7l0.1 0.4c0.2-0.3 0.5-0.6 0.9-0.6 0.3 0 0.6 0.1 0.7 0.5 0.2-0.3 0.5-0.5 0.9-0.5 0.4 0.1 0.8 0.4 0.8 1.3" fill="#414042"/>
   <g id="Group-33_4_" transform="translate(32.108,3.0799)">
    <g id="Fill-31-Clipped_4_">
     <mask x="655" y="787.9" width="3.8" height="4.4" maskUnits="userSpaceOnUse">
      <g class="st97" filter="url(#Adobe_OpacityMaskFilter_30_)">
       <polygon class="st9" points="655 787.9 658.9 787.9 658.9 792.2 655 792.2" clip-rule="evenodd" fill="#fff" fill-rule="evenodd"/>
      </g>
     </mask>
     <path id="Fill-31_4_" class="st98" d="m656 790.1c0 1 0.3 1.5 1 1.5s1-0.5 1-1.5-0.3-1.5-1-1.5-1 0.4-1 1.5m2.9 0c0 1.3-0.7 2.2-1.9 2.2s-1.9-0.8-1.9-2.2c0-1.3 0.7-2.2 1.9-2.2s1.9 0.8 1.9 2.2" fill="#414042" mask="url(#mask-14_4_)"/>
    </g>
   </g>
   <path id="Fill-34_4_" class="st7" d="m692.7 791.1h0.8l0.1 0.5c0.4-0.4 0.9-0.7 1.4-0.7 0.8 0 1.2 0.5 1.2 1.2v3h-0.9v-2.6c0-0.7-0.1-1-0.6-1-0.4 0-0.8 0.3-1 0.6v3h-0.9v-4z" fill="#414042"/>
   <g id="Group-38_4_" transform="translate(48.063,3.0799)">
    <g id="Fill-36-Clipped_4_">
     <mask x="649.7" y="787.9" width="3.6" height="4.4" maskUnits="userSpaceOnUse">
      <g class="st99" filter="url(#Adobe_OpacityMaskFilter_31_)">
       <polygon class="st9" points="649.7 787.9 653.4 787.9 653.4 792.2 649.7 792.2" clip-rule="evenodd" fill="#fff" fill-rule="evenodd"/>
      </g>
     </mask>
     <path id="Fill-36_4_" class="st100" d="m652.4 791c0-0.3-0.1-0.5-1-0.7-0.8-0.2-1.4-0.5-1.4-1.2s0.7-1.2 1.7-1.2c0.7 0 1.2 0.2 1.6 0.5l-0.4 0.6c-0.3-0.2-0.7-0.4-1.2-0.4-0.6 0-0.8 0.2-0.8 0.5s0.2 0.4 1.1 0.7c0.8 0.2 1.4 0.5 1.4 1.3 0 0.9-0.9 1.3-1.9 1.3-0.8 0-1.3-0.3-1.7-0.6l0.5-0.5c0.3 0.3 0.8 0.4 1.3 0.4 0.4-0.1 0.8-0.3 0.8-0.7" fill="#414042" mask="url(#mask-16_4_)"/>
    </g>
   </g>
  </g>
  <text class="st54 st58 st101" x="93.253738" y="64.155289" fill="#616365" font-family="Montserrat-Bold" font-size="8.584px" stroke-width=".26458">
   <tspan font-family="Montserrat">WINDMILL</tspan>
  </text>
 </g>
 <g id="search-details" class="details" transform="translate(31.895 27.625)" font-family="Montserrat" font-size="5.6049px" letter-spacing="0px" stroke-width=".26458" word-spacing="0px">
  <text x="19.097231" y="84.497993" style="font-feature-settings:normal;font-variant-caps:normal;font-variant-ligatures:normal;font-variant-numeric:normal;line-height:1.25" xml:space="preserve"><tspan x="19.097231" y="84.497993" stroke-width=".26458">• Build cohorts and export for analysis</tspan></text>
  <text x="19.097231" y="94.514366" style="font-feature-settings:normal;font-variant-caps:normal;font-variant-ligatures:normal;font-variant-numeric:normal;line-height:1.25" xml:space="preserve"><tspan x="19.097231" y="94.514366" stroke-width=".26458">• Integrated export to analysis tools</tspan></text>
 </g>
</svg>
