<?xml version="1.0" encoding="UTF-8"?>
<svg width="837.45" height="658.29" version="1.1" viewBox="0 0 221.57 174.18" xmlns="http://www.w3.org/2000/svg">
 <path id="data-border" class="dashed-border" d="m0.332 59.349 21.748 89.296h47.28v5.1593h-4.3656l11.456 19.844 11.456-19.844h-4.3656v-5.1593h137.77v-89.296z" fill="none" stroke="#c11f3e" stroke-dasharray="3.00010516" stroke-miterlimit="10" stroke-width=".52918"/>
 <g id="data-bdc-logo" class="logo" transform="matrix(.26458 0 0 .26458 -117.85 -8.648)">
  <path class="st5" d="m752 357c-4.4-22.2-23.9-38.9-47.4-38.9-18.6 0-34.8 10.6-42.9 26-19.4 2.1-34.5 18.5-34.5 38.4 0 21.3 17.3 38.7 38.7 38.7h83.8c17.8 0 32.2-14.4 32.2-32.2 0.1-17-13.1-30.8-29.9-32z" fill="#c11f3e"/>
  <text x="680.43585" y="368.68018" fill="#ffffff" font-family="Montserrat" font-size="21.184px" font-weight="bold" letter-spacing="0px" word-spacing="0px" style="font-feature-settings:normal;font-variant-caps:normal;font-variant-ligatures:normal;font-variant-numeric:normal;line-height:1.25" xml:space="preserve"><tspan x="680.43585" y="368.68018">BDC</tspan></text>
  <text x="652.87555" y="390.88324" fill="#ffffff" font-family="Montserrat" font-size="18.667px" letter-spacing="0px" word-spacing="0px" style="font-feature-settings:normal;font-variant-caps:normal;font-variant-ligatures:normal;font-variant-numeric:normal;line-height:1.25" xml:space="preserve"><tspan x="652.87555" y="390.88324">Data Cloud</tspan></text>
 </g>
 <text id="data-bdc-details" class="details" x="37.438251" y="117.67009" fill="#000000" font-family="Montserrat" font-size="4.9389px" letter-spacing="0px" stroke-width=".26458" word-spacing="0px" style="font-feature-settings:normal;font-variant-caps:normal;font-variant-ligatures:normal;font-variant-numeric:normal;line-height:1.25" xml:space="preserve"><tspan x="37.438251" y="117.67009" stroke-width=".26458"><tspan x="37.438251" y="117.67009" stroke-width=".26458">Ingested Public Datasets</tspan></tspan></text>
 <g id="data-gen3-logo" class="logo" transform="matrix(.26458 0 0 .26458 -89.836 -8.688)">
  <g fill="#414042">
   <path id="Fill-1_3_" class="st7" d="m875.9 370.2c0-13.6 8-20.4 16.4-20.4 5.1 0 8.1 1.5 11.1 4.4l-3 3.1c-2.4-2.2-4.9-3.3-8.2-3.3-5.7 0-11.1 4-11.1 16.2 0 11.5 3.6 16.3 10.4 16.3 2.7 0 5.2-0.6 7.4-1.9v-12h-7.7l-0.6-4.2h13.4v18.8c-3.5 2-7.3 3.4-12.8 3.4-9.3 0-15.3-6.8-15.3-20.4"/>
   <polygon id="Fill-3_3_" class="st7" points="913.2 387.8 926.5 387.8 926.5 390.6 909.6 390.6 909.6 362.8 926.1 362.8 925.7 365.7 913.2 365.7 913.2 375.1 924 375.1 924 377.9 913.2 377.9"/>
   <path id="Fill-5_3_" class="st7" d="m934.8 366.2c0.1 1.2 0.5 6.2 0.5 10.5v13.9h-3.1v-27.8h4.6l9.6 24.6c0-1.1-0.5-5.6-0.5-10.6v-13.9h3.1v27.8h-4.7z"/>
  </g>
  <g id="Group-9_3_" transform="translate(65.333)">
   <g id="Fill-7-Clipped_3_">
    <mask x="889.2" y="348.7" width="25.8" height="41.1" maskUnits="userSpaceOnUse">
     <g class="st62" filter="url(#Adobe_OpacityMaskFilter_16_)">
      <polygon class="st9" points="889.2 348.7 915.1 348.7 915.1 389.9 889.2 389.9" clip-rule="evenodd" fill="#fff" fill-rule="evenodd"/>
     </g>
    </mask>
    <path id="Fill-7_3_" class="st63" d="m900.9 370.8v-5.1c2.6 0 4.3-0.3 5.2-0.9 1.6-1 2.4-2.6 2.4-4.8 0-1.7-0.6-3.1-1.7-4.1-1.1-1.1-2.6-1.6-4.4-1.6-1.7 0-3 0.4-3.9 1.2s-1.6 2.2-2 4.2h-6.1c0.6-3.7 1.9-6.5 3.9-8.2s4.7-2.6 8.2-2.6c3.6 0 6.5 1 8.7 3.1 2.2 2 3.4 4.7 3.4 7.9 0 3.6-1.5 6.5-4.4 8.5 3.4 1.9 5 5.1 5 9.5 0 3.6-1.2 6.5-3.7 8.8s-5.6 3.4-9.4 3.4c-4.9 0-8.5-1.8-10.9-5.3-1-1.5-1.6-3.5-1.9-6.1h5.9c0.3 1.9 1.1 3.4 2.3 4.4s2.8 1.5 4.8 1.5 3.6-0.6 4.9-1.9 1.9-3 1.9-5c0-2.7-1-4.6-2.9-5.7-1.2-0.9-2.9-1.2-5.3-1.2" fill="#daca2e" mask="url(#mask-2_3_)"/>
   </g>
  </g>
  <g id="Group_3_" transform="translate(93.333,12.333)">
   <g id="Group-12_3_" transform="translate(0,1.5138)">
    <g id="Fill-10-Clipped_3_">
     <mask x="894.9" y="351.2" width="7.1" height="9.8" maskUnits="userSpaceOnUse">
      <g class="st64" filter="url(#Adobe_OpacityMaskFilter_17_)">
       <polygon class="st9" points="894.9 351.2 902 351.2 902 360.9 894.9 360.9" clip-rule="evenodd" fill="#fff" fill-rule="evenodd"/>
      </g>
     </mask>
     <path id="Fill-10_3_" class="st65" d="m897.5 352.4h-0.9v7.3h0.9c1.4 0 2.7-0.7 2.7-3.7 0-3.1-1.4-3.6-2.7-3.6m-0.1 8.5h-2.4v-9.8h2.3c2.4 0 4.8 0.8 4.8 4.8-0.1 4.2-2.5 5-4.7 5" fill="#414042" mask="url(#mask-4_3_)"/>
    </g>
   </g>
   <g id="Group-15_3_" transform="translate(7.1795,3.0799)">
    <g id="Fill-13-Clipped_3_">
     <mask x="897.1" y="351.7" width="6.9" height="7.8" maskUnits="userSpaceOnUse">
      <g class="st66" filter="url(#Adobe_OpacityMaskFilter_18_)">
       <polygon class="st9" points="897.1 351.7 903.9 351.7 903.9 359.6 897.1 359.6" clip-rule="evenodd" fill="#fff" fill-rule="evenodd"/>
      </g>
     </mask>
     <path id="Fill-13_3_" class="st67" d="m901.8 357.4v-1.7h-0.9c-1.5 0-2.1 0.5-2.1 1.4 0 0.8 0.4 1.2 1.3 1.2 0.6 0.1 1.3-0.2 1.7-0.9m2.1 1.1-0.4 1.1c-0.7-0.1-1.3-0.4-1.6-1-0.6 0.7-1.5 1-2.4 1-1.6 0-2.5-0.9-2.5-2.3 0-1.6 1.3-2.4 3.6-2.4h1.1v-0.5c0-1-0.6-1.4-1.7-1.4-0.5 0-1.3 0.1-2 0.4l-0.4-1.1c1-0.4 1.9-0.5 2.7-0.5 2 0 3 0.9 3 2.5v3.3c0.1 0.5 0.2 0.8 0.6 0.9" fill="#414042" mask="url(#mask-6_3_)"/>
    </g>
   </g>
   <path id="Fill-16_3_" class="st7" d="m918.4 362.6c-1.8 0-2.7-1-2.7-2.4v-4h-1.7v-1.2h1.7v-1.7l1.6-0.2v1.9h2.6l-0.2 1.2h-2.4v4c0 0.8 0.4 1.2 1.3 1.2 0.5 0 1-0.1 1.4-0.4l0.6 1c-0.5 0.4-1.3 0.6-2.2 0.6" fill="#414042"/>
   <g id="Group-20_3_" transform="translate(23.134,3.0799)">
    <g id="Fill-18-Clipped_3_">
     <mask x="900.2" y="351.7" width="6.9" height="7.8" maskUnits="userSpaceOnUse">
      <g class="st68" filter="url(#Adobe_OpacityMaskFilter_19_)">
       <polygon class="st9" points="900.2 351.7 907.1 351.7 907.1 359.6 900.2 359.6" clip-rule="evenodd" fill="#fff" fill-rule="evenodd"/>
      </g>
     </mask>
     <path id="Fill-18_3_" class="st69" d="m904.9 357.4v-1.7h-0.9c-1.5 0-2.1 0.5-2.1 1.4 0 0.8 0.4 1.2 1.3 1.2 0.7 0.1 1.3-0.2 1.7-0.9m2.2 1.1-0.4 1.1c-0.7-0.1-1.3-0.4-1.6-1-0.6 0.7-1.5 1-2.4 1-1.6 0-2.5-0.9-2.5-2.3 0-1.6 1.3-2.4 3.6-2.4h1.1v-0.5c0-1-0.6-1.4-1.7-1.4-0.5 0-1.3 0.1-2 0.4l-0.4-1.1c1-0.4 1.9-0.5 2.7-0.5 2 0 3 0.9 3 2.5v3.3c0 0.5 0.2 0.8 0.6 0.9" fill="#414042" mask="url(#mask-8_3_)"/>
    </g>
   </g>
  </g>
  <g id="Group-2_3_" transform="translate(91.778,23.125)">
   <g id="Group-23_3_" transform="translate(.19943 1.5138)">
    <g id="Fill-21-Clipped_3_">
     <mask x="895.1" y="353.2" width="7.5" height="10.1" maskUnits="userSpaceOnUse">
      <g class="st70" filter="url(#Adobe_OpacityMaskFilter_20_)">
       <polygon class="st9" points="895.1 353.2 902.6 353.2 902.6 363.3 895.1 363.3" clip-rule="evenodd" fill="#fff" fill-rule="evenodd"/>
      </g>
     </mask>
     <path id="Fill-21_3_" class="st71" d="m902.5 354.2-0.9 1c-0.6-0.5-1.3-0.7-2.1-0.7-1.5 0-2.7 1-2.7 3.8 0 2.7 1.2 3.7 2.8 3.7 1.1 0 1.7-0.4 2.2-0.8l0.8 1c-0.7 0.6-1.7 1.2-3.1 1.2-2.5 0-4.4-1.8-4.4-5.1s2-5.1 4.4-5.1c1.3 0 2.2 0.3 3 1" fill="#414042" mask="url(#mask-10_3_)"/>
    </g>
   </g>
   <g id="Group-26_3_" transform="translate(8.1766,3.0799)">
    <g id="Fill-24-Clipped_3_">
     <mask x="896.8" y="353.9" width="6.9" height="7.8" maskUnits="userSpaceOnUse">
      <g class="st72" filter="url(#Adobe_OpacityMaskFilter_21_)">
       <polygon class="st9" points="896.8 353.9 903.7 353.9 903.7 361.8 896.8 361.8" clip-rule="evenodd" fill="#fff" fill-rule="evenodd"/>
      </g>
     </mask>
     <path id="Fill-24_3_" class="st73" d="m898.5 357.8c0 1.9 0.6 2.7 1.7 2.7 1.2 0 1.7-0.8 1.7-2.7 0-1.8-0.6-2.7-1.7-2.7s-1.7 0.9-1.7 2.7m5.2 0c0 2.4-1.2 3.9-3.4 3.9s-3.4-1.5-3.4-3.9c0-2.3 1.2-3.9 3.5-3.9s3.3 1.6 3.3 3.9" fill="#414042" mask="url(#mask-12_3_)"/>
    </g>
   </g>
   <path id="Fill-27_3_" class="st7" d="m921.7 359.1v5.5h-1.4v-5.3c0-0.8-0.1-1.1-0.5-1.1s-0.7 0.2-1.1 0.7v5.7h-1.3v-5.3c0-0.8-0.1-1.1-0.5-1.1s-0.7 0.2-1.1 0.7v5.7h-1.4v-7.5h1.2l0.1 0.8c0.4-0.6 0.9-1 1.6-1 0.6 0 1.1 0.2 1.3 0.9 0.4-0.6 0.9-0.9 1.7-0.9 0.7 0.1 1.4 0.6 1.4 2.2" fill="#414042"/>
   <path id="Fill-29_3_" class="st7" d="m931.2 359.1v5.5h-1.4v-5.3c0-0.8-0.1-1.1-0.5-1.1s-0.7 0.2-1.1 0.7v5.7h-1.3v-5.3c0-0.8-0.1-1.1-0.5-1.1s-0.7 0.2-1.1 0.7v5.7h-1.4v-7.5h1.2l0.1 0.8c0.4-0.6 0.9-1 1.6-1 0.6 0 1.1 0.2 1.3 0.9 0.4-0.6 0.9-0.9 1.7-0.9 0.8 0.1 1.4 0.6 1.4 2.2" fill="#414042"/>
   <g id="Group-33_3_" transform="translate(32.108,3.0799)">
    <g id="Fill-31-Clipped_3_">
     <mask x="901.5" y="353.9" width="6.9" height="7.8" maskUnits="userSpaceOnUse">
      <g class="st74" filter="url(#Adobe_OpacityMaskFilter_22_)">
       <polygon class="st9" points="901.5 353.9 908.4 353.9 908.4 361.8 901.5 361.8" clip-rule="evenodd" fill="#fff" fill-rule="evenodd"/>
      </g>
     </mask>
     <path id="Fill-31_3_" class="st75" d="m903.2 357.8c0 1.9 0.6 2.7 1.7 2.7 1.2 0 1.7-0.8 1.7-2.7 0-1.8-0.6-2.7-1.7-2.7s-1.7 0.9-1.7 2.7m5.2 0c0 2.4-1.2 3.9-3.4 3.9s-3.4-1.5-3.4-3.9c0-2.3 1.2-3.9 3.5-3.9 2.1 0 3.3 1.6 3.3 3.9" fill="#414042" mask="url(#mask-14_3_)"/>
    </g>
   </g>
   <path id="Fill-34_3_" class="st7" d="m943.5 357.2h1.4l0.1 1c0.6-0.8 1.5-1.2 2.5-1.2 1.4 0 2.1 0.8 2.1 2.2v5.4h-1.6v-4.6c0-1.3-0.2-1.8-1.1-1.8-0.7 0-1.4 0.5-1.8 1.1v5.4h-1.6z" fill="#414042"/>
   <g id="Group-38_3_" transform="translate(48.063,3.0799)">
    <g id="Fill-36-Clipped_3_">
     <mask x="904.7" y="353.9" width="6.5" height="7.8" maskUnits="userSpaceOnUse">
      <g class="st76" filter="url(#Adobe_OpacityMaskFilter_23_)">
       <polygon class="st9" points="904.7 353.9 911.2 353.9 911.2 361.8 904.7 361.8" clip-rule="evenodd" fill="#fff" fill-rule="evenodd"/>
      </g>
     </mask>
     <path id="Fill-36_3_" class="st77" d="m909.4 359.6c0-0.6-0.2-0.9-1.8-1.3-1.5-0.4-2.5-0.9-2.5-2.2s1.2-2.1 3-2.1c1.3 0 2.2 0.4 2.9 0.9l-0.7 1c-0.6-0.4-1.3-0.7-2.2-0.7-1 0-1.4 0.3-1.4 0.8 0 0.6 0.4 0.8 1.9 1.2s2.5 0.9 2.5 2.3c0 1.6-1.6 2.3-3.4 2.3-1.4 0-2.4-0.5-3.1-1l0.8-1c0.6 0.5 1.4 0.8 2.3 0.8 1.1 0 1.7-0.4 1.7-1" fill="#414042" mask="url(#mask-16_3_)"/>
    </g>
   </g>
  </g>
 </g>
 <text id="data-gen3-details" class="details" x="137.71706" y="117.69477" fill="#000000" font-family="Montserrat" font-size="4.9389px" letter-spacing="0px" stroke-width=".26458" word-spacing="0px" style="font-feature-settings:normal;font-variant-caps:normal;font-variant-ligatures:normal;font-variant-numeric:normal;line-height:1.25" xml:space="preserve"><tspan x="137.71706" y="117.69477"><tspan x="137.71706" y="117.69477">• Genomic data files</tspan><tspan x="186.95163" y="117.69477" dx="0"/></tspan><tspan x="137.71706" y="123.86839"><tspan x="137.71706" y="123.86839">• Access controls</tspan><tspan x="178.46291" y="123.86839" dx="0"/></tspan><tspan x="137.71706" y="130.04199"><tspan x="137.71706" y="130.04199">• Data download</tspan><tspan x="178.40501" y="130.04199" dx="0"/></tspan><tspan x="137.71706" y="136.21561"><tspan x="137.71706" y="136.21561" stroke-width=".26458">• Indexing</tspan></tspan></text>
 <polygon id="data-hexagon" class="hexagon" transform="matrix(.26458 0 0 .26458 -9.136 -34.792)" points="608.1 265.6 530.6 131.5 375.8 131.5 298.4 265.6 375.8 399.8 530.6 399.8" fill="#c11f3e"/>
 <text id="data-title" class="title" x="94.847404" y="25.481106" fill="#ffffff" font-family="Montserrat" font-size="12.7px" font-weight="bold" stroke-width=".26458">Data</text>
 <text id="data-subtitle" class="subtitle" x="94.537117" y="40.139927" fill="#ffffff" font-family="Montserrat" font-size="6.3959px" stroke-width=".26459">
  <tspan class="st2 st5 st6" x="94.537117" y="40.139927">Federated</tspan>
  <tspan class="st2 st5 st6" x="95.886513" y="48.209904">Access to</tspan>
  <tspan class="st2 st5 st6" x="89.086571" y="56.279877">TOPMed data</tspan>
 </text>
</svg>
