<?xml version="1.0" encoding="UTF-8" standalone="no"?>
<svg
   xmlns:dc="http://purl.org/dc/elements/1.1/"
   xmlns:cc="http://creativecommons.org/ns#"
   xmlns:rdf="http://www.w3.org/1999/02/22-rdf-syntax-ns#"
   xmlns:svg="http://www.w3.org/2000/svg"
   xmlns="http://www.w3.org/2000/svg"
   xmlns:sodipodi="http://sodipodi.sourceforge.net/DTD/sodipodi-0.dtd"
   xmlns:inkscape="http://www.inkscape.org/namespaces/inkscape"
   width="1e3"
   height="460"
   version="1.1"
   viewBox="0 0 264.58 121.71"
   id="svg100"
   sodipodi:docname="service-analysis.svg"
   inkscape:version="0.92.3 (2405546, 2018-03-11)">
  <metadata
     id="metadata106">
    <rdf:RDF>
      <cc:Work
         rdf:about="">
        <dc:format>image/svg+xml</dc:format>
        <dc:type
           rdf:resource="http://purl.org/dc/dcmitype/StillImage" />
        <dc:title></dc:title>
      </cc:Work>
    </rdf:RDF>
  </metadata>
  <defs
     id="defs104" />
  <sodipodi:namedview
     pagecolor="#ffffff"
     bordercolor="#666666"
     borderopacity="1"
     objecttolerance="10"
     gridtolerance="10"
     guidetolerance="10"
     inkscape:pageopacity="0"
     inkscape:pageshadow="2"
     inkscape:window-width="1924"
     inkscape:window-height="1063"
     id="namedview102"
     showgrid="false"
     inkscape:zoom="0.84"
     inkscape:cx="466.77985"
     inkscape:cy="243.42945"
     inkscape:window-x="2951"
     inkscape:window-y="160"
     inkscape:window-maximized="0"
     inkscape:current-layer="svg100" />
  <path
     id="analysis-border"
     class="dashed-border"
     d="m263.94 32.142v89.296l-195.31-2e-5 -29.368-89.296z"
     fill="none"
     stroke="#1a568c"
     stroke-dasharray="3"
     stroke-miterlimit="10"
     stroke-width=".52916" />
  <polygon
     id="analysis-hexagon"
     class="hexagon"
     transform="matrix(.26458 0 0 .26458 -78.845 -271.51)"
     points="375.4 1295.3 530.2 1295.3 607.7 1161.2 530.2 1027.1 375.4 1027.1 298 1161.2"
     fill="#1a568c" />
  <text
     id="analysis-title"
     class="title"
     transform="scale(1 1)"
     x="13.282469"
     y="28.578939"
     fill="#ffffff"
     font-family="Montserrat"
     font-size="12.7px"
     font-weight="bold"
     stroke-width=".26458">Analysis</text>
  <text
     id="analysis-subtitle"
     class="subtitle"
     x="-14.674468"
     y="39.611046"
     fill="#fffbfb"
     font-family="Montserrat"
     font-size="5.605px"
     letter-spacing="0px"
     stroke-width=".26459"
     word-spacing="0px"
     style="font-feature-settings:normal;font-variant-caps:normal;font-variant-ligatures:normal;font-variant-numeric:normal;line-height:1.25"
     xml:space="preserve"><tspan
       x="12.620572"
       y="39.611046"
       id="tspan7"><tspan
         x="12.620572"
         y="39.611046"
         fill="#fffbfb"
         stroke-width=".26459"
         id="tspan5">Import and Analyze </tspan></tspan><tspan
       x="20.913139"
       y="46.61731"
       id="tspan11"><tspan
         x="20.913139"
         y="46.61731"
         fill="#fffbfb"
         stroke-width=".26459"
         id="tspan9">on Interactive </tspan></tspan><tspan
       x="22.122814"
       y="53.623581"
       id="tspan15"><tspan
         x="22.122814"
         y="53.623581"
         fill="#fffbfb"
         stroke-width=".26459"
         id="tspan13">Cloud-Based </tspan></tspan><tspan
       x="20.393145"
       y="60.629852"
       id="tspan19"><tspan
         x="20.393145"
         y="60.629852"
         fill="#fffbfb"
         stroke-width=".26459"
         id="tspan17">Environments</tspan></tspan></text>
  <g
     id="analysis-seven-bridges-logo"
     class="logo"
     transform="matrix(.26458 0 0 .26458 -56.074 -285.61)"
     fill="#1a568c">
    <path
       class="st55"
       d="m662.5 1379.8c2.2 1 3.1 2.3 3 4.9-0.1 2-1.4 3.5-3.8 4.1-1.4 0.3-2.8 0.4-4.2 0.4-1.9 0.1-3.8 0-5.6 0-0.7 0-1-0.1-1-0.9v-16.3c0-0.5 0.1-0.9 0.7-0.9 3 0.1 6-0.1 9 0.2 3.2 0.3 5 3 3.9 5.7-0.4 1.1-1.3 1.9-2 2.8zm-8.4 6.7c2.2-0.1 4.3-0.1 6.4-0.4 1.2-0.2 1.7-1.1 1.7-2.2s-0.6-2-1.7-2.2c-2.1-0.3-4.2-0.3-6.3-0.4-0.1 1.8-0.1 3.3-0.1 5.2zm0.1-8c1.8 0 3.6 0.1 5.4 0 1.2-0.1 1.9-1 1.9-2.1 0-1.2-0.5-2-1.8-2.2-1.8-0.2-3.7 0-5.6 0v3.8c0 0.1 0.1 0.3 0.1 0.5z"
       id="path22" />
    <path
       class="st55"
       d="m711 1377.2c0.1-0.6 0.1-1.1 0.1-1.7h2.9c0 0.4 0.1 0.7 0.1 1.1v10.7c0 3.8-1.8 6-5.5 6.7-2.6 0.4-5-0.2-7.2-1.7 0.4-0.7 0.8-1.4 1.3-2.2 2.4 1.4 4.8 2.2 7.2 0.5 1.3-0.9 1.4-2.4 1.2-3.9-3.3 2.4-6.8 2.3-9-0.2s-2.1-7 0.1-9.4c1.6-1.8 5.8-2.8 8.8 0.1zm0 4.8c0-2.4-1.5-4.1-3.7-4.1-2.3 0-3.9 1.7-3.9 4.1s1.6 4.1 3.8 4.1 3.8-1.7 3.8-4.1z"
       id="path24" />
    <path
       class="st55"
       d="m698.3 1389.1h-3c0-0.6-0.1-1.1-0.1-1.7-3.5 2.6-7.2 2.4-9.6-0.3-2.2-2.6-2-7.6 0.4-10 2-2 6.4-2.7 9.2 0.2 0-0.3 0.1-0.6 0.1-0.9v-5.4c0-0.7 0.1-1 0.9-1 2.7 0.1 2.2-0.3 2.2 2.1v15.5c-0.1 0.6-0.1 1-0.1 1.5zm-3.1-6.7c0-2.6-1.6-4.4-4-4.4-2.3 0-4.1 1.9-4.1 4.4 0 2.6 1.6 4.3 4.1 4.3 2.4 0 4-1.7 4-4.3z"
       id="path26" />
    <path
       class="st55"
       d="m587.3 1375.5c-1.6-0.5-3-1-4.5-1.3-0.7-0.2-1.6-0.1-2.2 0.1s-1.4 0.8-1.4 1.4c-0.1 0.6 0.4 1.5 0.9 1.9 0.7 0.5 1.6 0.7 2.5 1.1 1.1 0.4 2.3 0.8 3.4 1.3 1.8 0.8 2.7 2.2 2.7 4.2s-0.9 3.4-2.7 4.4c-3.1 1.7-8.4 0.9-11-1.6-0.2-0.2-0.3-0.7-0.2-0.9 0.3-0.7 0.7-1.4 0.9-1.9 1.8 0.8 3.5 1.6 5.3 2.1 0.9 0.3 2 0 2.9-0.3 1.5-0.5 1.7-2.4 0.4-3.2-0.9-0.6-2-0.9-3-1.3-1.1-0.4-2.3-0.7-3.3-1.2-1.6-0.8-2.5-2.2-2.5-4 0-1.9 0.8-3.3 2.5-4.1 3.4-1.6 6.7-1.1 9.9 0.6 0.2 0.1 0.3 0.6 0.2 0.8-0.2 0.6-0.5 1.2-0.8 1.9z"
       id="path28" />
    <path
       class="st55"
       d="m601.4 1385.2c0.5 0.6 1 1.1 1.6 1.7-2.2 2.3-4.9 2.8-7.8 2.1-2.7-0.6-4.2-2.5-4.7-5.1-0.5-2.8 0.1-5.3 2.4-7.1 2.1-1.7 5.7-1.9 8-0.5 1.8 1.1 2.5 2.8 2.7 4.7 0.1 0.8 0 1.6 0 2.6h-10.2c0.3 1.4 1 2.3 2.2 2.8 1.7 0.7 3.5 0.4 5.8-1.2zm-0.7-4.1c0-1.9-1.3-3.2-3.2-3.2-2.3-0.1-3.9 1.1-4.1 3.2z"
       id="path30" />
    <path
       class="st55"
       d="m621.4 1383.5c0.4 3.3 4.4 4.2 7.8 1.6 0.5 0.5 0.9 1.1 1.5 1.8-0.5 0.4-1 0.9-1.6 1.2-2.2 1.3-4.6 1.4-7 0.5-2.8-1.1-4.4-4-4-7.2 0.4-3.3 2.5-5.6 5.6-6 1.1-0.1 2.3-0.1 3.4 0.1 2.8 0.6 4.2 2.8 4.4 6.3 0.1 1.6 0.1 1.6-1.6 1.6-2.8 0.1-5.6 0.1-8.5 0.1zm-0.1-2.4h7.4c-0.2-2-1.4-3.1-3.2-3.2-2.4-0.1-3.9 1-4.2 3.2z"
       id="path32" />
    <path
       class="st55"
       d="m729.9 1383.5h-10.1c0.1 3.3 4 4.1 7.8 1.7 0.5 0.5 1 1 1.5 1.6-1 1.2-2.2 1.8-3.6 2.2-3.3 0.8-6.6-0.4-8.1-3s-1.1-6.3 0.8-8.4 5.3-2.8 8.1-1.7c2.6 1.1 3.4 3.3 3.6 5.8zm-2.9-2.3c0-2-1.3-3.3-3.4-3.4-2.3-0.1-3.9 1.3-3.9 3.4z"
       id="path34" />
    <path
       class="st55"
       d="m646.9 1389.1h-2.9c0-0.5-0.1-1.1-0.1-1.6v-6.1c0-1.7-0.8-2.7-2.1-3.1-1.5-0.4-3.3 0.1-4 1.4-0.4 0.8-0.7 1.7-0.8 2.6-0.1 2.2 0 4.4 0 6.7h-3v-13.5h2.9v2.2c1.3-1.6 2.7-2.2 4.4-2.4 3.2-0.3 5.6 1.7 5.6 4.9v8.5c0.1 0.1 0.1 0.2 0 0.4z"
       id="path36" />
    <path
       class="st55"
       d="m742.2 1376.9c-0.3 0.7-0.7 1.4-0.9 1.9-1.5-0.3-2.9-0.6-4.3-0.9-0.7-0.1-1.4 0.1-1.6 0.9-0.2 0.9 0.4 1.3 1.1 1.6 1.3 0.5 2.6 0.8 3.9 1.4 1.8 0.8 2.6 2.6 1.9 4.4-0.3 0.8-0.9 1.7-1.7 2.1-2.4 1.6-6.8 1-8.9-1.1 0.3-0.6 0.7-1.3 1-2.1 1.5 1 3 1.7 4.8 1.6 0.3 0 0.6 0.1 0.7-0.1 0.4-0.3 1.1-0.7 1.1-1.1 0.1-0.4-0.4-1.1-0.8-1.4-1-0.5-2.1-0.8-3.1-1.2-1.5-0.5-2.8-1.3-3.1-3.1-0.2-1.6 0.3-2.9 1.6-3.8 2.2-1.2 6.3-0.9 8.3 0.9z"
       id="path38" />
    <path
       class="st55"
       d="m604.2 1375.5c0.2 0 0.3-0.1 0.4-0.1 2.7-0.1 2.7-0.1 3.6 2.5s1.9 5.2 2.9 8c1.1-3.2 2.2-6.2 3.2-9.2 0.3-1 0.7-1.5 1.8-1.3 0.5 0.1 1.1 0 1.7 0-0.5 1.3-0.9 2.6-1.4 3.8-1.1 3-2.3 6-3.4 9-0.3 0.7-0.6 1-1.4 1-2.1 0-2.1 0-2.9-2-1.4-3.5-2.7-7.1-4.1-10.6-0.2-0.3-0.3-0.7-0.4-1.1z"
       id="path40" />
    <path
       class="st55"
       d="m671.3 1375.5v2.4c1.3-1.6 2.7-2.6 4.7-2.4v2.7c-0.2 0-0.4 0.1-0.6 0.1-2.5 0.2-4 1.8-4.1 4.3v6.6h-2.5c-0.2 0-0.5-0.4-0.5-0.6v-12.4c0-0.2 0.4-0.6 0.6-0.6 0.8-0.2 1.5-0.1 2.4-0.1z"
       id="path42" />
    <path
       class="st55"
       d="m678.7 1375.6c0.1-0.1 0.2-0.1 0.2-0.1 2.8-0.2 2.8-0.2 2.8 2.6v11h-3z"
       id="path44" />
    <path
       class="st55"
       d="m680.1 1373.5c-1 0-1.8-0.7-1.8-1.8s0.7-1.9 1.8-1.9c1 0 1.8 0.8 1.8 1.9 0 1-0.8 1.8-1.8 1.8z"
       id="path46" />
  </g>
  <g
     id="analysis-seven-bridges-details"
     class="details"
     transform="translate(-117.83 -20.102)"
     font-family="Montserrat"
     font-size="4.9389px"
     letter-spacing="0px"
     word-spacing="0px">
    <text
       x="212.09897"
       y="117.4091"
       style="font-feature-settings:normal;font-variant-caps:normal;font-variant-ligatures:normal;font-variant-numeric:normal;line-height:1.25"
       xml:space="preserve"
       id="text51"><tspan
         x="212.09897"
         y="117.4091"
         font-size="4.9389px"
         stroke-width=".26458"
         id="tspan49">Interactive Analysis</tspan></text>
    <text
       x="217.59312"
       y="124.65258"
       style="font-feature-settings:normal;font-variant-caps:normal;font-variant-ligatures:normal;font-variant-numeric:normal;line-height:1.25"
       xml:space="preserve"
       id="text55"><tspan
         x="217.59312"
         y="124.65258"
         font-size="4.9389px"
         stroke-width=".26458"
         id="tspan53">• JupyterLab</tspan></text>
    <text
       x="217.59312"
       y="131.77612"
       style="font-feature-settings:normal;font-variant-caps:normal;font-variant-ligatures:normal;font-variant-numeric:normal;line-height:1.25"
       xml:space="preserve"
       id="text59"><tspan
         x="217.59312"
         y="131.77612"
         font-size="4.9389px"
         stroke-width=".26458"
         id="tspan57">• RStudio</tspan></text>
  </g>
  <g
     id="analysis-terra-logo"
     class="logo"
     transform="translate(-107.25,-30.685)">
    <path
       class="st105"
       d="m306.77 117.31s4.0217 3.1485 6.1119 2.884l7.276-3.2808 1.6933-7.6994-0.26458-2.6194-5.9002-4.6302-2.8046-0.87313-6.2706 2.8046-2.5135 2.9633-0.21167 7.4877 3.5454 2.9633 0.60854-3.7042-2.196-4.9477 5.3975-4.9742 6.8792 2.249 1.561 6.2442-5.1594 5.1594-7.911-3.7306z"
       fill="#57a445"
       id="path62" />
    <path
       class="st106"
       d="m322.17 110.7v3.8629c0 0.97896-0.44979 1.7462-1.2964 2.249-2.196 1.27-4.3921 2.54-6.6146 3.8364-0.89958 0.52917-1.8256 0.52917-2.7252 0-2.2225-1.27-4.4185-2.54-6.641-3.8364-0.82021-0.47625-1.2435-1.2171-1.27-2.1431-0.0265-0.79375 0-1.5875 0-2.3548v-5.3446c0-0.58209 0.15875-1.1377 0.50271-1.6404 0.26458-0.39688 0.66146-0.635 1.0583-0.87313 2.1167-1.2171 4.2069-2.4342 6.3236-3.6512 0.92604-0.52916 1.8521-0.55562 2.8046 0 2.196 1.27 4.3921 2.5136 6.5617 3.81 0.87312 0.50271 1.3229 1.27 1.3229 2.2754-0.0265 1.2435-0.0265 2.54-0.0265 3.81zm-18.071 1.6669c-0.0265 0.68791 0.26459 1.27 0.68792 1.6933 0.55562 0.58208 1.1377 1.1377 1.6933 1.6933 0.76729 0.79375 1.561 1.561 2.3283 2.3548 0.29104 0.29105 0.55562 0.60855 0.87312 0.84667 0.58208 0.44979 1.2171 0.58208 1.905 0.42333 0.89958-0.21166 1.7727-0.44979 2.6723-0.68791 1.2171-0.3175 2.4077-0.635 3.6248-0.9525 0.52917-0.13229 1.0054-0.34396 1.3758-0.76729 0.21166-0.23813 0.37041-0.50271 0.44979-0.82021 0.18521-0.66146 0.37042-1.3229 0.55562-2.0108 0.15875-0.60854 0.34396-1.2435 0.50271-1.8521 0.21167-0.74083 0.39688-1.5081 0.60854-2.249 0.1323-0.47625 0.26459-0.9525 0.15875-1.4552-0.0794-0.39687-0.23812-0.76729-0.5027-1.0848-0.26459-0.29104-0.55563-0.58208-0.84667-0.87312-0.71438-0.76729-1.4817-1.4817-2.196-2.2225-0.58209-0.60854-1.1906-1.1906-1.7992-1.7992s-1.3229-0.79375-2.1431-0.58208c-0.68792 0.15875-1.4023 0.37041-2.0902 0.55562-1.4552 0.37042-2.9104 0.76729-4.3656 1.1377-0.82021 0.21167-1.3758 0.71438-1.6404 1.5346-0.23813 0.79375-0.4498 1.614-0.66146 2.4342-0.3175 1.1906-0.66146 2.4077-0.97896 3.5983-0.10583 0.34396-0.26458 0.71438-0.21167 1.0848z"
       fill="#309448"
       id="path64" />
    <g
       fill="#9ac63e"
       id="g72">
      <path
         class="st107"
         d="m311.4 103.29c0.39688 0 0.74084 0.10583 1.0848 0.21166 0.71438 0.21167 1.4023 0.4498 2.1167 0.66146 0.82021 0.23813 1.6404 0.47625 2.4342 0.71438 0.39687 0.10583 0.79375 0.23812 1.1377 0.47625 0.26458 0.18521 0.39687 0.44979 0.5027 0.74083 0.18521 0.47625 0.26459 1.0054 0.37042 1.5081 0.13229 0.66145 0.29104 1.3229 0.44979 1.9844 0.18521 0.76729 0.39688 1.5346 0.55563 2.3283 0.13229 0.635 0 1.1906-0.47625 1.6404-0.44979 0.44979-0.92604 0.87313-1.4023 1.2965-0.21167 0.18521-0.39688 0.37042-0.58209 0.52917-0.21166 0.21166-0.42333 0.39687-0.635 0.60854-0.34396 0.34396-0.68791 0.66146-1.0319 1.0054-0.26459 0.23813-0.50271 0.47625-0.79375 0.68792-0.42334 0.3175-0.89959 0.37042-1.4288 0.26458-0.50271-0.13229-1.0054-0.29104-1.5081-0.44979-1.1112-0.37041-2.249-0.68791-3.3867-1.0054-0.37042-0.10584-0.71438-0.21167-1.0583-0.37042-0.37041-0.18521-0.60854-0.47625-0.74083-0.84667-0.21167-0.55562-0.29104-1.1377-0.42333-1.6933-0.21167-1.0054-0.4498-1.9844-0.68792-2.9898-0.10583-0.44979-0.23813-0.89959-0.3175-1.3758-0.0794-0.52916 0.0529-0.97895 0.39687-1.3494 0.47625-0.52917 1.0054-0.9525 1.5346-1.4288 0.21166-0.18521 0.42333-0.39688 0.635-0.58208 0.29104-0.29105 0.58208-0.58209 0.87312-0.84667 0.39688-0.37042 0.74084-0.76729 1.1377-1.1112 0.15875-0.13229 0.34396-0.29104 0.52917-0.39688 0.29104-0.15875 0.50271-0.21166 0.71437-0.21166zm-0.52916 7.9904h0.8202c0.10584 0 0.15875-0.0529 0.15875-0.15875v-0.9525c-0.0265-0.635-0.37041-0.97895-1.0054-0.97895h-0.55563c-0.55562 0-0.92604 0.3175-0.9525 0.87312-0.0265 0.52917-0.0265 1.0848 0 1.614 0.0265 0.68792 0.37042 1.0054 1.0583 1.0054h1.1112c0.34395 0 0.3175 0.0264 0.3175-0.3175 0-0.26459 0-0.26459-0.26459-0.26459h-1.1642c-0.3175 0-0.4498-0.15875-0.47625-0.47625v-0.26458c0-0.10583 0.0265-0.13229 0.13229-0.13229 0.26458 0.0529 0.52916 0.0529 0.82021 0.0529zm7.8317 0.0529c-0.0265-0.37042 0.0265-0.84667-0.0265-1.2965-0.0529-0.47625-0.37041-0.82021-0.84666-0.82021h-1.2965c-0.0794 0-0.13229 0.0265-0.13229 0.1323v0.29104c0 0.13229 0.0529 0.15875 0.15875 0.15875h1.1112c0.23812 0 0.34396 0.13229 0.39687 0.34396 0.0265 0.0794 0.0265 0.13229 0.0265 0.21166 0 0.18521 0 0.18521-0.18521 0.18521-0.3175 0-0.635-0.0265-0.9525 0.0265-0.37041 0.0529-0.635 0.23812-0.74083 0.60854-0.0794 0.29104-0.0794 0.58208-0.0265 0.84667 0.0794 0.39687 0.39688 0.66146 0.87313 0.68791 0.5027 0.0265 1.0319 0 1.5346 0 0.0794 0 0.0794-0.0529 0.0794-0.10583 0.0265-0.39687 0.0265-0.79375 0.0265-1.27zm-10.372-0.55562v-1.7462c0-0.18521 0-0.18521 0.15875-0.18521h0.66145c0.10584 0 0.1323-0.0265 0.1323-0.13229v-0.3175c0-0.0794-0.0265-0.1323-0.1323-0.1323h-2.249c-0.10584 0-0.1323 0.0529-0.1323 0.1323v0.3175c0 0.10583 0.0529 0.13229 0.1323 0.13229h0.66145c0.1323 0 0.15875 0.0529 0.15875 0.15875v3.519c0 0.10583 0.0529 0.15875 0.15875 0.15875h0.29105c0.15875 0 0.15875-0.0265 0.15875-0.18521v-1.7198zm6.641-1.1906v-0.23812c0-0.10584-0.0265-0.15875-0.15875-0.15875h-0.26459c-0.15875 0-0.1852 0-0.1852 0.1852v3.2014c0 0.10584 0.0529 0.15875 0.15875 0.15875h0.34395c0.0794 0 0.10584-0.0265 0.10584-0.10583v-2.2225c0-0.37042 0.15875-0.60854 0.58208-0.58208h0.29104c0.0794 0 0.10584-0.0265 0.10584-0.10584v-0.37041c0-0.0529-0.0265-0.10584-0.10584-0.10584-0.3175-0.0529-0.66146-0.0529-0.87312 0.34396zm-2.0108 0v-0.23812c0-0.10584-0.0264-0.15875-0.13229-0.1323h-0.29104c-0.15875 0-0.18521 0-0.18521 0.18521v3.175c0 0.10584 0.0529 0.15875 0.15875 0.15875h0.3175c0.0794 0 0.13229-0.0529 0.13229-0.13229v-2.2225c0-0.39687 0.18521-0.58208 0.58209-0.58208h0.29104c0.0794 0 0.10583-0.0265 0.10583-0.10584v-0.37041c0-0.0529-0.0265-0.10584-0.10583-0.10584-0.3175-0.0264-0.66146-0.0264-0.87313 0.37042z"
         id="path66" />
      <path
         class="st107"
         d="m310.56 110.8h-0.52917c-0.0794 0-0.10583-0.0264-0.10583-0.10583v-0.50271c0-0.26458 0.13229-0.39687 0.39687-0.39687h0.50271c0.23812 0 0.34396 0.13229 0.37042 0.34396 0.0265 0.1852 0 0.37041 0.0265 0.55562 0 0.0794-0.0529 0.10583-0.10583 0.10583h-0.55562z"
         id="path68" />
      <path
         class="st107"
         d="m318.12 111.6v0.4498c0 0.0794-0.0265 0.13229-0.10583 0.13229h-0.7673c-0.29104 0-0.42333-0.15875-0.42333-0.42334v-0.29104c0-0.21166 0.13229-0.34396 0.34396-0.37041 0.29104-0.0265 0.60854 0 0.89958-0.0265 0.0794 0 0.0794 0.0529 0.0794 0.10583-0.0265 0.10583-0.0265 0.26458-0.0265 0.42333z"
         id="path70" />
    </g>
  </g>
  <g
     id="analysis-terra-details"
     class="details"
     font-family="Montserrat"
     font-size="4.9389px"
     letter-spacing="0px"
     word-spacing="0px">
    <text
       x="177.20523"
       y="97.307106"
       style="font-feature-settings:normal;font-variant-caps:normal;font-variant-ligatures:normal;font-variant-numeric:normal;line-height:1.25"
       xml:space="preserve"
       id="text77"><tspan
         x="177.20523"
         y="97.307106"
         font-size="4.9389px"
         stroke-width=".26458"
         id="tspan75">Interactive Analysis</tspan></text>
    <text
       x="182.69937"
       y="104.55058"
       style="font-feature-settings:normal;font-variant-caps:normal;font-variant-ligatures:normal;font-variant-numeric:normal;line-height:1.25"
       xml:space="preserve"
       id="text81"><tspan
         x="182.69937"
         y="104.55058"
         font-size="4.9389px"
         stroke-width=".26458"
         id="tspan79">• Jupyter Notebooks</tspan></text>
  </g>
  <g
     id="analysis-dockstore-logo"
     class="logo"
     transform="matrix(.26458 0 0 .26458 -81.733 -268.59)"
     fill="#7686ab">
    <path
       class="st103"
       d="m788.6 1249.6h-0.7c-2-1.1-4.3-1.5-6.4-2.2-1-0.3-1.9-0.5-1.7-1.9 0.1-0.8-0.7-0.8-1.2-1-4.9-1.4-9.8-2.9-14.7-4.3-0.5-0.1-1.1-0.5-1.6 0.1-1.1 1.1-1.9 0.4-2.5-0.6-0.3-0.5-0.6-0.9-1.3-1.1-3.4-1-6.8-2-10.1-3-0.4-0.1-1.1-0.4-1.2 0.2-0.3 1.2-1 0.6-1.6 0.4-0.7-0.1-1.3-0.5-2.1-0.4v-5.3c0.6-0.5 0.4-1.2 0.4-1.8v-32.7c0-0.6 0.2-1.3-0.4-1.8v-5.6c0.9 0.1 1.7-0.4 2.6-0.6 0.4-0.1 1-0.4 1.1 0 0.5 1.7 1.5 0.8 2.3 0.6 2.9-0.8 5.8-1.6 8.6-2.5 0.4-0.1 1-0.1 1.1-0.4 0.9-1.4 1.9-2.4 3.7-1 0.2 0.2 0.9-0.2 1.3-0.3 4.8-1.4 9.7-2.8 14.6-4.2 1-0.3 1.9-0.6 1.7-1.9-0.1-0.8 0.6-0.9 1.1-1.1 1.8-0.6 3.6-1 5.4-1.7 1.2-0.4 1.6-0.2 1.6 1.1-0.1 2.8 0 5.5 0 8.3v54.6c-0.1 3.3 0 6.7 0 10.1zm-17.4-16.6c3.7 0 6.4-2.3 7-5.9 0.6-4.1-2.4-8.4-6.8-9.6-1.2-0.3-1.7-0.8-2.1-2-1.2-4.3-2.6-8.7-3.9-13-0.3-1-0.3-1.7 0.6-2.4 1.2-1 1.8-2.4 2-4 0.4-2.9-1.7-5.4-4.5-5.3-4.2 0.2-7.2 5.3-5.1 8.9 0.6 1 0.4 1.6-0.1 2.4-2.2 3.7-4.4 7.4-6.5 11.1-0.5 0.9-1 1.5-2.2 1.6-1.7 0.1-2.7 2.3-2.1 4.3 0.6 1.9 2.4 3.1 3.7 2.2 1.4-1 2.5-0.5 3.7 0 1.7 0.7 3.5 1.4 5.3 2 1.4 0.4 2 1.2 2.3 2.6 0.8 4.1 4.6 7.1 8.7 7.1z"
       id="path84" />
    <path
       class="st103"
       d="m791.6 1212.2v-25.4c0-3.4-0.3-6.8 0-10.2 0.1-1.1 0.3-1.4 1.4-1 3.6 1.2 7.3 2.3 10.9 3.4 0.6 0.2 1.2 0.3 1.1 1.1-0.2 1.2 0.6 1.4 1.6 1.7 12.7 3.7 25.5 7.5 38.2 11.2 0.8 0.2 1.4 0.7 2.3-0.3s3.9 1 3.9 2.6v34.5c0 1.3-3 2.9-4 2.1-0.6-0.6-1.1-0.5-1.7-0.3-13 3.8-25.9 7.7-38.9 11.5-0.9 0.3-1.5 0.5-1.4 1.6 0.1 0.6-0.4 0.8-0.8 0.9l-11.4 3.6c-0.8 0.3-1.1 0-1.2-0.9-0.3-2.9 0-5.9 0-8.8 0.1-9.1 0-18.2 0-27.3zm12.5-0.8v19.9c0 0.7-0.4 2 0.7 2s0.7-1.3 0.7-2v-39.3c0-0.5 0-0.9-0.1-1.4 0-0.4-0.2-0.7-0.6-0.7-0.5 0-0.7 0.3-0.7 0.8v1.6zm25.1 0.2v-14.8c0-0.8 0.5-2.3-0.8-2.3-1.2 0-0.8 1.5-0.8 2.3v29.5c0 0.6 0.1 1.2 0.2 1.7 0.1 0.4 0.4 0.6 0.8 0.5 0.3 0 0.6-0.2 0.6-0.6 0.1-0.5 0.1-1 0.1-1.6-0.1-4.7-0.1-9.7-0.1-14.7zm-14.4 0v-17.8c0-0.8 0.5-2.1-0.8-2.1-1.1 0-0.7 1.3-0.7 2.1v36.7c0 0.5 0.2 1 0.8 1 0.5 0 0.6-0.5 0.6-0.9v-1.4c0.1-5.9 0.1-11.8 0.1-17.6zm7.7 0.1v-16.5c0-0.7 0.4-2-0.7-2s-0.7 1.3-0.7 2v33.8c0 0.5 0.1 1 0.7 1s0.7-0.6 0.7-1.1v-1.4zm10.9 0v14.3c0 0.6-0.2 1.5 0.6 1.6 1 0 0.7-1 0.8-1.6v-28.2c0-0.5 0-0.9-0.1-1.4 0-0.3-0.3-0.5-0.6-0.6-0.4 0-0.7 0.2-0.7 0.6-0.1 0.5-0.1 1.1-0.1 1.6 0.1 4.6 0.1 9.1 0.1 13.7zm6.4 0v-12.7c0-0.8 0.5-2.1-0.8-2.1-1.1 0-0.7 1.3-0.7 2v26.6c0 0.5 0 1 0.7 1 0.6 0 0.7-0.5 0.7-1v-1.2c0.1-4.1 0.1-8.4 0.1-12.6zm2.8 0v12.7c0 0.6-0.1 1.5 0.8 1.4 0.8-0.1 0.6-0.9 0.6-1.4v-25.1c0-0.6 0.2-1.5-0.7-1.5s-0.7 0.9-0.7 1.5zm5.3 0.1v-11.8c0-0.6 0.2-1.5-0.7-1.6-0.9 0-0.8 0.9-0.8 1.5v23.6c0 0.6-0.2 1.5 0.7 1.6 1 0 0.7-1 0.8-1.7z"
       id="path86" />
    <path
       class="st103"
       d="m761.9 1201.9c1-0.2 1.4 0.3 1.6 1.2 1.3 4.3 2.5 8.5 3.9 12.8 0.3 0.9 0.2 1.5-0.9 1.8-1.6 0.5-2.8 1.6-3.5 3.1-0.5 1-1 1.1-1.9 0.7-2.3-0.9-4.6-1.7-6.9-2.6-1.3-0.5-2-2.2-1.3-3.4 2.5-4.3 5.1-8.6 7.6-12.9 0.3-0.6 0.7-0.9 1.4-0.7z"
       id="path88" />
  </g>
  <g
     id="analysis-dockstore-details"
     class="details"
     font-family="Montserrat"
     font-size="4.9389px"
     letter-spacing="0px"
     word-spacing="0px">
    <text
       x="153.52466"
       y="50.254902"
       font-size="4.9389px"
       stroke-width=".26458"
       id="text93">
      <tspan
         class="st79 st80"
         x="153.52466"
         y="50.254902"
         font-family="Montserrat"
         font-size="4.9389px"
         stroke-width=".26458"
         id="tspan91">Reproducible Workflows</tspan>
    </text>
    <text
       x="159.0188"
       y="58.514309"
       font-size="4.9389px"
       stroke-width=".26458"
       id="text97">
      <tspan
         class="st79 st80"
         x="159.0188"
         y="58.514309"
         font-family="Montserrat"
         font-size="4.9389px"
         stroke-width=".26458"
         id="tspan95">• CWL, WDL, NFL</tspan>
    </text>
  </g>
</svg>
